<svg xmlns="http://www.w3.org/2000/svg" xmlns:xlink="http://www.w3.org/1999/xlink" id="processonSvg1000" viewBox="23.6666666666664 24.0246913580242 1169.8333333333335 1045.9858126301888" width="1169.8333333333335" height="1045.9858126301888"><defs id="ProcessOnDefs1001"><marker id="ProcessOnMarker1144" markerUnits="userSpaceOnUse" orient="auto" markerWidth="20.609529741924973" markerHeight="10.888175666885001" viewBox="-2.3047648709624866 -1.5914908829822711 20.609529741924973 10.888175666885001" refX="0.0" refY="3.8525969504602293"><path id="ProcessOnPath1145" d="M0 3.8525969504602293L8.0 0L16.0 3.8525969504602293L8.0 7.705193900920459Z" stroke="#323232" stroke-width="2.0" fill="#fff"/></marker><marker id="ProcessOnMarker1148" markerUnits="userSpaceOnUse" orient="auto" markerWidth="16.23606797749979" markerHeight="10.550836550532098" viewBox="-1.0 -1.3763819204711736 16.23606797749979 10.550836550532098" refX="-1.0" refY="3.8990363547948754"><path id="ProcessOnPath1149" d="M12.0 3.8990363547948754L0.0 7.798072709589751V0.0Z" stroke="#323232" stroke-width="2.0" fill="#fff" transform="matrix(1.0,0.0,0.0,1.0,0.0,0.0)"/></marker><marker id="ProcessOnMarker1152" markerUnits="userSpaceOnUse" orient="auto" markerWidth="16.23606797749979" markerHeight="10.550836550532098" viewBox="-1.0 -1.3763819204711736 16.23606797749979 10.550836550532098" refX="-1.0" refY="3.8990363547948754"><path id="ProcessOnPath1153" d="M12.0 3.8990363547948754L0.0 7.798072709589751V0.0Z" stroke="#323232" stroke-width="2.0" fill="#fff" transform="matrix(1.0,0.0,0.0,1.0,0.0,0.0)"/></marker><marker id="ProcessOnMarker1156" markerUnits="userSpaceOnUse" orient="auto" markerWidth="14.289086868996552" markerHeight="19.055054660878554" viewBox="-0.5877852522924731 -0.8090169943749475 14.289086868996552 19.055054660878554" refX="12.0" refY="8.71851033606433"><path id="ProcessOnPath1157" d="M0 0L12.0 8.71851033606433L0 17.43702067212866" stroke="#323232" stroke-width="2.0" fill="none" transform="matrix(1.0,0.0,0.0,1.0,0.0,0.0)"/></marker><marker id="ProcessOnMarker1160" markerUnits="userSpaceOnUse" orient="auto" markerWidth="14.289086868996552" markerHeight="19.055054660878554" viewBox="-0.5877852522924731 -0.8090169943749475 14.289086868996552 19.055054660878554" refX="12.0" refY="8.71851033606433"><path id="ProcessOnPath1161" d="M0 0L12.0 8.71851033606433L0 17.43702067212866" stroke="#323232" stroke-width="2.0" fill="none" transform="matrix(1.0,0.0,0.0,1.0,0.0,0.0)"/></marker><marker id="ProcessOnMarker1164" markerUnits="userSpaceOnUse" orient="auto" markerWidth="20.609529741924973" markerHeight="10.888175666885001" viewBox="-2.3047648709624866 -1.5914908829822711 20.609529741924973 10.888175666885001" refX="0.0" refY="3.8525969504602293"><path id="ProcessOnPath1165" d="M0 3.8525969504602293L8.0 0L16.0 3.8525969504602293L8.0 7.705193900920459Z" stroke="#323232" stroke-width="2.0" fill="#323232"/></marker><marker id="ProcessOnMarker1168" markerUnits="userSpaceOnUse" orient="auto" markerWidth="14.289086868996552" markerHeight="19.055054660878554" viewBox="-0.5877852522924731 -0.8090169943749475 14.289086868996552 19.055054660878554" refX="12.0" refY="8.71851033606433"><path id="ProcessOnPath1169" d="M0 0L12.0 8.71851033606433L0 17.43702067212866" stroke="#323232" stroke-width="2.0" fill="none" transform="matrix(1.0,0.0,0.0,1.0,0.0,0.0)"/></marker><marker id="ProcessOnMarker1172" markerUnits="userSpaceOnUse" orient="auto" markerWidth="20.609529741924973" markerHeight="10.888175666885001" viewBox="-2.3047648709624866 -1.5914908829822711 20.609529741924973 10.888175666885001" refX="0.0" refY="3.8525969504602293"><path id="ProcessOnPath1173" d="M0 3.8525969504602293L8.0 0L16.0 3.8525969504602293L8.0 7.705193900920459Z" stroke="#323232" stroke-width="2.0" fill="#323232"/></marker></defs><g id="ProcessOnG1002"><path id="ProcessOnPath1003" d="M23.6666666666664 24.0246913580242H1193.5V1070.010503988213H23.666666666666515V24.024691358024256Z" fill="none"/><g id="ProcessOnG1004"><g id="ProcessOnG1005" transform="matrix(1.0,0.0,0.0,1.0,43.6666666666664,279.74279835390956)" opacity="1.0"><path id="ProcessOnPath1006" d="M0.0 4.0Q0.0 0.0 4.0 0.0L389.0 0.0Q393.0 0.0 393.0 4.0L393.0 234.0Q393.0 238.0 389.0 238.0L4.0 238.0Q0.0 238.0 0.0 234.0Z" stroke="#323232" stroke-width="2.0" stroke-dasharray="none" opacity="1.0" fill="#ffffff"/><path id="ProcessOnPath1007" d="M0.0 30.0L393.0 30.0M0.0 160.0L393.0 160.0" stroke="#323232" stroke-width="2.0" stroke-dasharray="none" opacity="1.0" fill="none"/><path id="ProcessOnPath1008" d="M0.0 0.0L393.0 0.0L393.0 238.0L0.0 238.0Z" stroke="none" stroke-width="0.0" stroke-dasharray="none" opacity="1.0" fill="none"/><g id="ProcessOnG1009" transform="matrix(1.0,0.0,0.0,1.0,10.0,6.875)"><text id="ProcessOnText1010" fill="#000000" font-size="13" x="0.0" y="13.325" font-family="微软雅黑" font-weight="bold" font-style="normal" text-decoration="none" family="微软雅黑" text-anchor="start" size="13">Hub</text></g><g id="ProcessOnG1011" transform="matrix(1.0,0.0,0.0,1.0,10.0,29.0)"><text id="ProcessOnText1012" fill="#000000" font-size="13" x="0.0" y="13.325" font-family="微软雅黑" font-weight="bold" font-style="normal" text-decoration="none" family="微软雅黑" text-anchor="start" size="13"></text><text id="ProcessOnText1013" fill="#000000" font-size="13" x="0.0" y="29.575" font-family="微软雅黑" font-weight="bold" font-style="normal" text-decoration="none" family="微软雅黑" text-anchor="start" size="13">- clients: map[Sender]chan&lt;- []byte</text><text id="ProcessOnText1014" fill="#000000" font-size="13" x="0.0" y="45.825" font-family="微软雅黑" font-weight="bold" font-style="normal" text-decoration="none" family="微软雅黑" text-anchor="start" size="13">- history: *historylog.HistoryLog</text><text id="ProcessOnText1015" fill="#000000" font-size="13" x="0.0" y="62.075" font-family="微软雅黑" font-weight="bold" font-style="normal" text-decoration="none" family="微软雅黑" text-anchor="start" size="13"></text><text id="ProcessOnText1016" fill="#000000" font-size="13" x="0.0" y="78.325" font-family="微软雅黑" font-weight="bold" font-style="normal" text-decoration="none" family="微软雅黑" text-anchor="start" size="13">+ Boradcast: chan Sendable</text><text id="ProcessOnText1017" fill="#000000" font-size="13" x="0.0" y="94.575" font-family="微软雅黑" font-weight="bold" font-style="normal" text-decoration="none" family="微软雅黑" text-anchor="start" size="13">+ Register: chan Sender</text><text id="ProcessOnText1018" fill="#000000" font-size="13" x="0.0" y="110.825" font-family="微软雅黑" font-weight="bold" font-style="normal" text-decoration="none" family="微软雅黑" text-anchor="start" size="13">+ Unregister: chan Sender</text><text id="ProcessOnText1019" fill="#000000" font-size="13" x="0.0" y="127.075" font-family="微软雅黑" font-weight="bold" font-style="normal" text-decoration="none" family="微软雅黑" text-anchor="start" size="13"></text></g><g id="ProcessOnG1020" transform="matrix(1.0,0.0,0.0,1.0,10.0,159.375)"><text id="ProcessOnText1021" fill="#000000" font-size="13" x="0.0" y="13.325" font-family="微软雅黑" font-weight="bold" font-style="normal" text-decoration="none" family="微软雅黑" text-anchor="start" size="13"></text><text id="ProcessOnText1022" fill="#000000" font-size="13" x="0.0" y="29.575" font-family="微软雅黑" font-weight="bold" font-style="normal" text-decoration="none" family="微软雅黑" text-anchor="start" size="13">+ New(hl *historylog.HistoryLog): *Hub</text><text id="ProcessOnText1023" fill="#000000" font-size="13" x="0.0" y="45.825" font-family="微软雅黑" font-weight="bold" font-style="normal" text-decoration="none" family="微软雅黑" text-anchor="start" size="13"></text><text id="ProcessOnText1024" fill="#000000" font-size="13" x="0.0" y="62.075" font-family="微软雅黑" font-weight="bold" font-style="normal" text-decoration="none" family="微软雅黑" text-anchor="start" size="13">+ Run(): void</text><text id="ProcessOnText1025" fill="#000000" font-size="13" x="0.0" y="78.325" font-family="微软雅黑" font-weight="bold" font-style="normal" text-decoration="none" family="微软雅黑" text-anchor="start" size="13"></text></g></g><g id="ProcessOnG1026" transform="matrix(1.0,0.0,0.0,1.0,101.55452674897089,795.010503988213)" opacity="1.0"><path id="ProcessOnPath1027" d="M0.0 4.0Q0.0 0.0 4.0 0.0L553.3638926992844 0.0Q557.3638926992844 0.0 557.3638926992844 4.0L557.3638926992844 250.25720164609044Q557.3638926992844 254.25720164609044 553.3638926992844 254.25720164609044L4.0 254.25720164609044Q0.0 254.25720164609044 0.0 250.25720164609044Z" stroke="#323232" stroke-width="2.0" stroke-dasharray="none" opacity="1.0" fill="#ffffff"/><path id="ProcessOnPath1028" d="M0.0 30.0L557.3638926992844 30.0M0.0 126.0L557.3638926992844 126.0" stroke="#323232" stroke-width="2.0" stroke-dasharray="none" opacity="1.0" fill="none"/><path id="ProcessOnPath1029" d="M0.0 0.0L557.3638926992844 0.0L557.3638926992844 254.25720164609044L0.0 254.25720164609044Z" stroke="none" stroke-width="0.0" stroke-dasharray="none" opacity="1.0" fill="none"/><g id="ProcessOnG1030" transform="matrix(1.0,0.0,0.0,1.0,10.0,6.875)"><text id="ProcessOnText1031" fill="#000000" font-size="13" x="0.0" y="13.325" font-family="微软雅黑" font-weight="bold" font-style="normal" text-decoration="none" family="微软雅黑" text-anchor="start" size="13">Client</text></g><g id="ProcessOnG1032" transform="matrix(1.0,0.0,0.0,1.0,10.0,29.25)"><text id="ProcessOnText1033" fill="#000000" font-size="13" x="0.0" y="13.325" font-family="微软雅黑" font-weight="bold" font-style="normal" text-decoration="none" family="微软雅黑" text-anchor="start" size="13"></text><text id="ProcessOnText1034" fill="#000000" font-size="13" x="0.0" y="29.575" font-family="微软雅黑" font-weight="bold" font-style="normal" text-decoration="none" family="微软雅黑" text-anchor="start" size="13">- send: chan []byte</text><text id="ProcessOnText1035" fill="#000000" font-size="13" x="0.0" y="45.825" font-family="微软雅黑" font-weight="bold" font-style="normal" text-decoration="none" family="微软雅黑" text-anchor="start" size="13">- hub: *Hub</text><text id="ProcessOnText1036" fill="#000000" font-size="13" x="0.0" y="62.075" font-family="微软雅黑" font-weight="bold" font-style="normal" text-decoration="none" family="微软雅黑" text-anchor="start" size="13">- wsConn: *websocket.Conn</text><text id="ProcessOnText1037" fill="#000000" font-size="13" x="0.0" y="78.325" font-family="微软雅黑" font-weight="bold" font-style="normal" text-decoration="none" family="微软雅黑" text-anchor="start" size="13">- info: Info</text><text id="ProcessOnText1038" fill="#000000" font-size="13" x="0.0" y="94.575" font-family="微软雅黑" font-weight="bold" font-style="normal" text-decoration="none" family="微软雅黑" text-anchor="start" size="13"></text></g><g id="ProcessOnG1039" transform="matrix(1.0,0.0,0.0,1.0,10.0,125.0)"><text id="ProcessOnText1040" fill="#000000" font-size="13" x="0.0" y="13.325" font-family="微软雅黑" font-weight="bold" font-style="normal" text-decoration="none" family="微软雅黑" text-anchor="start" size="13"></text><text id="ProcessOnText1041" fill="#000000" font-size="13" x="0.0" y="29.575" font-family="微软雅黑" font-weight="bold" font-style="normal" text-decoration="none" family="微软雅黑" text-anchor="start" size="13">+ New(hb *hub.Hub, wsConn *websocket.Conn, inform message.Info): *Client</text><text id="ProcessOnText1042" fill="#000000" font-size="13" x="0.0" y="45.825" font-family="微软雅黑" font-weight="bold" font-style="normal" text-decoration="none" family="微软雅黑" text-anchor="start" size="13"></text><text id="ProcessOnText1043" fill="#000000" font-size="13" x="0.0" y="62.075" font-family="微软雅黑" font-weight="bold" font-style="normal" text-decoration="none" family="微软雅黑" text-anchor="start" size="13">+ SenderChannel(): chan&lt;- []byte</text><text id="ProcessOnText1044" fill="#000000" font-size="13" x="0.0" y="78.325" font-family="微软雅黑" font-weight="bold" font-style="normal" text-decoration="none" family="微软雅黑" text-anchor="start" size="13">+ GenSummary(): string</text><text id="ProcessOnText1045" fill="#000000" font-size="13" x="0.0" y="94.575" font-family="微软雅黑" font-weight="bold" font-style="normal" text-decoration="none" family="微软雅黑" text-anchor="start" size="13">+ ReadPump(): void</text><text id="ProcessOnText1046" fill="#000000" font-size="13" x="0.0" y="110.825" font-family="微软雅黑" font-weight="bold" font-style="normal" text-decoration="none" family="微软雅黑" text-anchor="start" size="13">+ WritePump(): void</text><text id="ProcessOnText1047" fill="#000000" font-size="13" x="0.0" y="127.075" font-family="微软雅黑" font-weight="bold" font-style="normal" text-decoration="none" family="微软雅黑" text-anchor="start" size="13"></text></g></g><g id="ProcessOnG1048" transform="matrix(1.0,0.0,0.0,1.0,43.6666666666664,44.0246913580242)" opacity="1.0"><path id="ProcessOnPath1049" d="M0.0 4.0Q0.0 0.0 4.0 0.0L559.8333333333336 0.0Q563.8333333333336 0.0 563.8333333333336 4.0L563.8333333333336 194.9753086419758Q563.8333333333336 198.9753086419758 559.8333333333336 198.9753086419758L4.0 198.9753086419758Q0.0 198.9753086419758 0.0 194.9753086419758Z" stroke="#323232" stroke-width="2.0" stroke-dasharray="none" opacity="1.0" fill="#ffffff"/><path id="ProcessOnPath1050" d="M0.0 30.0L563.8333333333336 30.0M0.0 94.0L563.8333333333336 94.0" stroke="#323232" stroke-width="2.0" stroke-dasharray="none" opacity="1.0" fill="none"/><path id="ProcessOnPath1051" d="M0.0 0.0L563.8333333333336 0.0L563.8333333333336 198.9753086419758L0.0 198.9753086419758Z" stroke="none" stroke-width="0.0" stroke-dasharray="none" opacity="1.0" fill="none"/><g id="ProcessOnG1052" transform="matrix(1.0,0.0,0.0,1.0,10.0,6.875)"><text id="ProcessOnText1053" fill="#000000" font-size="13" x="0.0" y="13.325" font-family="微软雅黑" font-weight="bold" font-style="normal" text-decoration="none" family="微软雅黑" text-anchor="start" size="13">HttpServer</text></g><g id="ProcessOnG1054" transform="matrix(1.0,0.0,0.0,1.0,10.0,29.5)"><text id="ProcessOnText1055" fill="#000000" font-size="13" x="0.0" y="13.325" font-family="微软雅黑" font-weight="bold" font-style="normal" text-decoration="none" family="微软雅黑" text-anchor="start" size="13"></text><text id="ProcessOnText1056" fill="#000000" font-size="13" x="0.0" y="29.575" font-family="微软雅黑" font-weight="bold" font-style="normal" text-decoration="none" family="微软雅黑" text-anchor="start" size="13">- listenAddr: string</text><text id="ProcessOnText1057" fill="#000000" font-size="13" x="0.0" y="45.825" font-family="微软雅黑" font-weight="bold" font-style="normal" text-decoration="none" family="微软雅黑" text-anchor="start" size="13">- handlers: map[string]func(http.ResponseWriter, *http.Request)</text><text id="ProcessOnText1058" fill="#000000" font-size="13" x="0.0" y="62.075" font-family="微软雅黑" font-weight="bold" font-style="normal" text-decoration="none" family="微软雅黑" text-anchor="start" size="13"></text></g><g id="ProcessOnG1059" transform="matrix(1.0,0.0,0.0,1.0,10.0,93.25)"><text id="ProcessOnText1060" fill="#000000" font-size="13" x="0.0" y="13.325" font-family="微软雅黑" font-weight="bold" font-style="normal" text-decoration="none" family="微软雅黑" text-anchor="start" size="13"></text><text id="ProcessOnText1061" fill="#000000" font-size="13" x="0.0" y="29.575" font-family="微软雅黑" font-weight="bold" font-style="normal" text-decoration="none" family="微软雅黑" text-anchor="start" size="13">+ New(addr string, map[string]func(ResponseWriter, *Request)): HttpServer</text><text id="ProcessOnText1062" fill="#000000" font-size="13" x="0.0" y="45.825" font-family="微软雅黑" font-weight="bold" font-style="normal" text-decoration="none" family="微软雅黑" text-anchor="start" size="13"></text><text id="ProcessOnText1063" fill="#000000" font-size="13" x="0.0" y="62.075" font-family="微软雅黑" font-weight="bold" font-style="normal" text-decoration="none" family="微软雅黑" text-anchor="start" size="13">+ Run(): void</text><text id="ProcessOnText1064" fill="#000000" font-size="13" x="0.0" y="78.325" font-family="微软雅黑" font-weight="bold" font-style="normal" text-decoration="none" family="微软雅黑" text-anchor="start" size="13">+ Listen(): string</text><text id="ProcessOnText1065" fill="#000000" font-size="13" x="0.0" y="94.575" font-family="微软雅黑" font-weight="bold" font-style="normal" text-decoration="none" family="微软雅黑" text-anchor="start" size="13"></text></g></g><g id="ProcessOnG1066" transform="matrix(1.0,0.0,0.0,1.0,542.2059137326623,284.1391048112582)" opacity="1.0"><path id="ProcessOnPath1067" d="M0.0 4.0Q0.0 0.0 4.0 0.0L261.22427983539103 0.0Q265.22427983539103 0.0 265.22427983539103 4.0L265.22427983539103 64.86089518874178Q265.22427983539103 68.86089518874178 261.22427983539103 68.86089518874178L4.0 68.86089518874178Q0.0 68.86089518874178 0.0 64.86089518874178Z" stroke="#323232" stroke-width="2.0" stroke-dasharray="none" opacity="1.0" fill="#ffffff"/><path id="ProcessOnPath1068" d="M0.0 30.0L265.22427983539103 30.0" stroke="#323232" stroke-width="2.0" stroke-dasharray="none" opacity="1.0" fill="none"/><path id="ProcessOnPath1069" d="M0.0 0.0L265.22427983539103 0.0L265.22427983539103 68.86089518874178L0.0 68.86089518874178Z" stroke="none" stroke-width="0.0" stroke-dasharray="none" opacity="1.0" fill="none"/><g id="ProcessOnG1070" transform="matrix(1.0,0.0,0.0,1.0,10.0,6.875)"><text id="ProcessOnText1071" fill="#000000" font-size="13" x="0.0" y="13.325" font-family="微软雅黑" font-weight="bold" font-style="normal" text-decoration="none" family="微软雅黑" text-anchor="start" size="13">Sendable</text></g><g id="ProcessOnG1072" transform="matrix(1.0,0.0,0.0,1.0,10.0,41.30544759437089)"><text id="ProcessOnText1073" fill="#000000" font-size="13" x="0.0" y="13.325" font-family="微软雅黑" font-weight="bold" font-style="normal" text-decoration="none" family="微软雅黑" text-anchor="start" size="13">+ Data(): []byte</text></g></g><g id="ProcessOnG1074" transform="matrix(1.0,0.0,0.0,1.0,101.55452674897089,607.6036935426514)" opacity="1.0"><path id="ProcessOnPath1075" d="M0.0 4.0Q0.0 0.0 4.0 0.0L273.22427983539103 0.0Q277.22427983539103 0.0 277.22427983539103 4.0L277.22427983539103 64.79261291469732Q277.22427983539103 68.79261291469732 273.22427983539103 68.79261291469732L4.0 68.79261291469732Q0.0 68.79261291469732 0.0 64.79261291469732Z" stroke="#323232" stroke-width="2.0" stroke-dasharray="none" opacity="1.0" fill="#ffffff"/><path id="ProcessOnPath1076" d="M0.0 30.0L277.22427983539103 30.0" stroke="#323232" stroke-width="2.0" stroke-dasharray="none" opacity="1.0" fill="none"/><path id="ProcessOnPath1077" d="M0.0 0.0L277.22427983539103 0.0L277.22427983539103 68.79261291469732L0.0 68.79261291469732Z" stroke="none" stroke-width="0.0" stroke-dasharray="none" opacity="1.0" fill="none"/><g id="ProcessOnG1078" transform="matrix(1.0,0.0,0.0,1.0,10.0,6.875)"><text id="ProcessOnText1079" fill="#000000" font-size="13" x="0.0" y="13.325" font-family="微软雅黑" font-weight="bold" font-style="normal" text-decoration="none" family="微软雅黑" text-anchor="start" size="13">Sender</text></g><g id="ProcessOnG1080" transform="matrix(1.0,0.0,0.0,1.0,10.0,41.27130645734866)"><text id="ProcessOnText1081" fill="#000000" font-size="13" x="0.0" y="13.325" font-family="微软雅黑" font-weight="bold" font-style="normal" text-decoration="none" family="微软雅黑" text-anchor="start" size="13">+ SenderChannel(): chan&lt;- []byte</text></g></g><g id="ProcessOnG1082" transform="matrix(1.0,0.0,0.0,1.0,655.5,44.0246913580242)" opacity="1.0"><path id="ProcessOnPath1083" d="M0.0 4.0Q0.0 0.0 4.0 0.0L514.0 0.0Q518.0 0.0 518.0 4.0L518.0 202.86089518874178Q518.0 206.86089518874178 514.0 206.86089518874178L4.0 206.86089518874178Q0.0 206.86089518874178 0.0 202.86089518874178Z" stroke="#323232" stroke-width="2.0" stroke-dasharray="none" opacity="1.0" fill="#ffffff"/><path id="ProcessOnPath1084" d="M0.0 30.0L518.0 30.0M0.0 110.0L518.0 110.0" stroke="#323232" stroke-width="2.0" stroke-dasharray="none" opacity="1.0" fill="none"/><path id="ProcessOnPath1085" d="M0.0 0.0L518.0 0.0L518.0 206.86089518874178L0.0 206.86089518874178Z" stroke="none" stroke-width="0.0" stroke-dasharray="none" opacity="1.0" fill="none"/><g id="ProcessOnG1086" transform="matrix(1.0,0.0,0.0,1.0,10.0,6.875)"><text id="ProcessOnText1087" fill="#000000" font-size="13" x="0.0" y="13.325" font-family="微软雅黑" font-weight="bold" font-style="normal" text-decoration="none" family="微软雅黑" text-anchor="start" size="13">Message</text></g><g id="ProcessOnG1088" transform="matrix(1.0,0.0,0.0,1.0,10.0,29.375)"><text id="ProcessOnText1089" fill="#000000" font-size="13" x="0.0" y="13.325" font-family="微软雅黑" font-weight="bold" font-style="normal" text-decoration="none" family="微软雅黑" text-anchor="start" size="13"></text><text id="ProcessOnText1090" fill="#000000" font-size="13" x="0.0" y="29.575" font-family="微软雅黑" font-weight="bold" font-style="normal" text-decoration="none" family="微软雅黑" text-anchor="start" size="13">- sendTime: Time</text><text id="ProcessOnText1091" fill="#000000" font-size="13" x="0.0" y="45.825" font-family="微软雅黑" font-weight="bold" font-style="normal" text-decoration="none" family="微软雅黑" text-anchor="start" size="13">- message: string</text><text id="ProcessOnText1092" fill="#000000" font-size="13" x="0.0" y="62.075" font-family="微软雅黑" font-weight="bold" font-style="normal" text-decoration="none" family="微软雅黑" text-anchor="start" size="13">- senderInfo: Info</text><text id="ProcessOnText1093" fill="#000000" font-size="13" x="0.0" y="78.325" font-family="微软雅黑" font-weight="bold" font-style="normal" text-decoration="none" family="微软雅黑" text-anchor="start" size="13"></text></g><g id="ProcessOnG1094" transform="matrix(1.0,0.0,0.0,1.0,10.0,109.25)"><text id="ProcessOnText1095" fill="#000000" font-size="13" x="0.0" y="13.325" font-family="微软雅黑" font-weight="bold" font-style="normal" text-decoration="none" family="微软雅黑" text-anchor="start" size="13"></text><text id="ProcessOnText1096" fill="#000000" font-size="13" x="0.0" y="29.575" font-family="微软雅黑" font-weight="bold" font-style="normal" text-decoration="none" family="微软雅黑" text-anchor="start" size="13">+ New(message []byte, sendtime time.Time, userinfo Info): Message</text><text id="ProcessOnText1097" fill="#000000" font-size="13" x="0.0" y="45.825" font-family="微软雅黑" font-weight="bold" font-style="normal" text-decoration="none" family="微软雅黑" text-anchor="start" size="13"></text><text id="ProcessOnText1098" fill="#000000" font-size="13" x="0.0" y="62.075" font-family="微软雅黑" font-weight="bold" font-style="normal" text-decoration="none" family="微软雅黑" text-anchor="start" size="13">+ Data(): []byte</text><text id="ProcessOnText1099" fill="#000000" font-size="13" x="0.0" y="78.325" font-family="微软雅黑" font-weight="bold" font-style="normal" text-decoration="none" family="微软雅黑" text-anchor="start" size="13">+ GenSummary(): string</text><text id="ProcessOnText1100" fill="#000000" font-size="13" x="0.0" y="94.575" font-family="微软雅黑" font-weight="bold" font-style="normal" text-decoration="none" family="微软雅黑" text-anchor="start" size="13"></text></g></g><g id="ProcessOnG1101" transform="matrix(1.0,0.0,0.0,1.0,943.5,572.0)" opacity="1.0"><path id="ProcessOnPath1102" d="M0.0 4.0Q0.0 0.0 4.0 0.0L226.0 0.0Q230.0 0.0 230.0 4.0L230.0 136.0Q230.0 140.0 226.0 140.0L4.0 140.0Q0.0 140.0 0.0 136.0Z" stroke="#323232" stroke-width="2.0" stroke-dasharray="none" opacity="1.0" fill="#ffffff"/><path id="ProcessOnPath1103" d="M0.0 30.0L230.0 30.0M0.0 110.0L230.0 110.0" stroke="#323232" stroke-width="2.0" stroke-dasharray="none" opacity="1.0" fill="none"/><path id="ProcessOnPath1104" d="M0.0 0.0L230.0 0.0L230.0 140.0L0.0 140.0Z" stroke="none" stroke-width="0.0" stroke-dasharray="none" opacity="1.0" fill="none"/><g id="ProcessOnG1105" transform="matrix(1.0,0.0,0.0,1.0,10.0,6.875)"><text id="ProcessOnText1106" fill="#000000" font-size="13" x="0.0" y="13.325" font-family="微软雅黑" font-weight="bold" font-style="normal" text-decoration="none" family="微软雅黑" text-anchor="start" size="13">Info</text></g><g id="ProcessOnG1107" transform="matrix(1.0,0.0,0.0,1.0,10.0,29.375)"><text id="ProcessOnText1108" fill="#000000" font-size="13" x="0.0" y="13.325" font-family="微软雅黑" font-weight="bold" font-style="normal" text-decoration="none" family="微软雅黑" text-anchor="start" size="13"></text><text id="ProcessOnText1109" fill="#000000" font-size="13" x="0.0" y="29.575" font-family="微软雅黑" font-weight="bold" font-style="normal" text-decoration="none" family="微软雅黑" text-anchor="start" size="13">+ Name: string</text><text id="ProcessOnText1110" fill="#000000" font-size="13" x="0.0" y="45.825" font-family="微软雅黑" font-weight="bold" font-style="normal" text-decoration="none" family="微软雅黑" text-anchor="start" size="13">+ IPAddress: string</text><text id="ProcessOnText1111" fill="#000000" font-size="13" x="0.0" y="62.075" font-family="微软雅黑" font-weight="bold" font-style="normal" text-decoration="none" family="微软雅黑" text-anchor="start" size="13">+ Mail: string</text><text id="ProcessOnText1112" fill="#000000" font-size="13" x="0.0" y="78.325" font-family="微软雅黑" font-weight="bold" font-style="normal" text-decoration="none" family="微软雅黑" text-anchor="start" size="13"></text></g><g id="ProcessOnG1113" transform="matrix(1.0,0.0,0.0,1.0,10.0,116.875)"><text id="ProcessOnText1114" fill="#000000" font-size="13" x="0.0" y="13.325" font-family="微软雅黑" font-weight="bold" font-style="normal" text-decoration="none" family="微软雅黑" text-anchor="start" size="13"></text></g></g><g id="ProcessOnG1115" transform="matrix(1.0,0.0,0.0,1.0,506.21620179850595,536.6839658588632)" opacity="1.0"><path id="ProcessOnPath1116" d="M0.0 4.0Q0.0 0.0 4.0 0.0L333.2037037037037 0.0Q337.2037037037037 0.0 337.2037037037037 4.0L337.2037037037037 206.63206828227368Q337.2037037037037 210.63206828227368 333.2037037037037 210.63206828227368L4.0 210.63206828227368Q0.0 210.63206828227368 0.0 206.63206828227368Z" stroke="#323232" stroke-width="2.0" stroke-dasharray="none" opacity="1.0" fill="#ffffff"/><path id="ProcessOnPath1117" d="M0.0 30.0L337.2037037037037 30.0M0.0 112.0L337.2037037037037 112.0" stroke="#323232" stroke-width="2.0" stroke-dasharray="none" opacity="1.0" fill="none"/><path id="ProcessOnPath1118" d="M0.0 0.0L337.2037037037037 0.0L337.2037037037037 210.63206828227368L0.0 210.63206828227368Z" stroke="none" stroke-width="0.0" stroke-dasharray="none" opacity="1.0" fill="none"/><g id="ProcessOnG1119" transform="matrix(1.0,0.0,0.0,1.0,10.0,6.875)"><text id="ProcessOnText1120" fill="#000000" font-size="13" x="0.0" y="13.325" font-family="微软雅黑" font-weight="bold" font-style="normal" text-decoration="none" family="微软雅黑" text-anchor="start" size="13">HistoryLog</text></g><g id="ProcessOnG1121" transform="matrix(1.0,0.0,0.0,1.0,10.0,29.375)"><text id="ProcessOnText1122" fill="#000000" font-size="13" x="0.0" y="13.325" font-family="微软雅黑" font-weight="bold" font-style="normal" text-decoration="none" family="微软雅黑" text-anchor="start" size="13"></text><text id="ProcessOnText1123" fill="#000000" font-size="13" x="0.0" y="29.575" font-family="微软雅黑" font-weight="bold" font-style="normal" text-decoration="none" family="微软雅黑" text-anchor="start" size="13">- target: string</text><text id="ProcessOnText1124" fill="#000000" font-size="13" x="0.0" y="45.825" font-family="微软雅黑" font-weight="bold" font-style="normal" text-decoration="none" family="微软雅黑" text-anchor="start" size="13">- l: *log.Logger</text><text id="ProcessOnText1125" fill="#000000" font-size="13" x="0.0" y="62.075" font-family="微软雅黑" font-weight="bold" font-style="normal" text-decoration="none" family="微软雅黑" text-anchor="start" size="13">- file: *os.File</text><text id="ProcessOnText1126" fill="#000000" font-size="13" x="0.0" y="78.325" font-family="微软雅黑" font-weight="bold" font-style="normal" text-decoration="none" family="微软雅黑" text-anchor="start" size="13"></text></g><g id="ProcessOnG1127" transform="matrix(1.0,0.0,0.0,1.0,10.0,111.25)"><text id="ProcessOnText1128" fill="#000000" font-size="13" x="0.0" y="13.325" font-family="微软雅黑" font-weight="bold" font-style="normal" text-decoration="none" family="微软雅黑" text-anchor="start" size="13"></text><text id="ProcessOnText1129" fill="#000000" font-size="13" x="0.0" y="29.575" font-family="微软雅黑" font-weight="bold" font-style="normal" text-decoration="none" family="微软雅黑" text-anchor="start" size="13">+ New(logFile string): *HistoryLog</text><text id="ProcessOnText1130" fill="#000000" font-size="13" x="0.0" y="45.825" font-family="微软雅黑" font-weight="bold" font-style="normal" text-decoration="none" family="微软雅黑" text-anchor="start" size="13"></text><text id="ProcessOnText1131" fill="#000000" font-size="13" x="0.0" y="62.075" font-family="微软雅黑" font-weight="bold" font-style="normal" text-decoration="none" family="微软雅黑" text-anchor="start" size="13">+ PrintFrom(msg string, obj *Logger): void</text><text id="ProcessOnText1132" fill="#000000" font-size="13" x="0.0" y="78.325" font-family="微软雅黑" font-weight="bold" font-style="normal" text-decoration="none" family="微软雅黑" text-anchor="start" size="13">+ Close(): void</text><text id="ProcessOnText1133" fill="#000000" font-size="13" x="0.0" y="94.575" font-family="微软雅黑" font-weight="bold" font-style="normal" text-decoration="none" family="微软雅黑" text-anchor="start" size="13"></text></g></g><g id="ProcessOnG1134" transform="matrix(1.0,0.0,0.0,1.0,542.2059137326623,385.1391048112582)" opacity="1.0"><path id="ProcessOnPath1135" d="M0.0 4.0Q0.0 0.0 4.0 0.0L261.2242798353909 0.0Q265.2242798353909 0.0 265.2242798353909 4.0L265.2242798353909 61.86089518874178Q265.2242798353909 65.86089518874178 261.2242798353909 65.86089518874178L4.0 65.86089518874178Q0.0 65.86089518874178 0.0 61.86089518874178Z" stroke="#323232" stroke-width="2.0" stroke-dasharray="none" opacity="1.0" fill="#ffffff"/><path id="ProcessOnPath1136" d="M0.0 30.0L265.2242798353909 30.0" stroke="#323232" stroke-width="2.0" stroke-dasharray="none" opacity="1.0" fill="none"/><path id="ProcessOnPath1137" d="M0.0 0.0L265.2242798353909 0.0L265.2242798353909 65.86089518874178L0.0 65.86089518874178Z" stroke="none" stroke-width="0.0" stroke-dasharray="none" opacity="1.0" fill="none"/><g id="ProcessOnG1138" transform="matrix(1.0,0.0,0.0,1.0,10.0,6.875)"><text id="ProcessOnText1139" fill="#000000" font-size="13" x="0.0" y="13.325" font-family="微软雅黑" font-weight="bold" font-style="normal" text-decoration="none" family="微软雅黑" text-anchor="start" size="13">HistoryLogger</text></g><g id="ProcessOnG1140" transform="matrix(1.0,0.0,0.0,1.0,10.0,39.80544759437089)"><text id="ProcessOnText1141" fill="#000000" font-size="13" x="0.0" y="13.325" font-family="微软雅黑" font-weight="bold" font-style="normal" text-decoration="none" family="微软雅黑" text-anchor="start" size="13">+ GenSummary(): string</text></g></g><g id="ProcessOnG1142"><path id="ProcessOnPath1143" d="M240.1666666666664 607.6036935426514L240.1666666666664 562.6732459482805L240.1666666666664 562.6732459482805L240.1666666666664 536.0475632248721" stroke="#323232" stroke-width="2.0" stroke-dasharray="none" fill="none" marker-end="url(#ProcessOnMarker1144)"/></g><g id="ProcessOnG1146"><path id="ProcessOnPath1147" d="M380.2364730986131 795.010503988213L380.2364730986131 735.7034052227809L240.1666666666664 735.7034052227809L240.1666666666664 691.6323744348485" stroke="#323232" stroke-width="2.0" stroke-dasharray="10.0 4.0" fill="none" marker-end="url(#ProcessOnMarker1148)"/></g><g id="ProcessOnG1150"><path id="ProcessOnPath1151" d="M914.5 250.88558654676598L914.5 318.5695524056291L822.6662615455532 318.5695524056291" stroke="#323232" stroke-width="2.0" stroke-dasharray="10.0 4.0" fill="none" marker-end="url(#ProcessOnMarker1152)"/></g><g id="ProcessOnG1154"><path id="ProcessOnPath1155" d="M435.85713958740234 318.8571434020996L489.03152666003234 318.8571434020996L489.03152666003234 318.5695524056291L542.2059137326623 318.5695524056291" stroke="#323232" stroke-width="2.0" stroke-dasharray="10.0 4.0" fill="none" marker-end="url(#ProcessOnMarker1156)"/></g><g id="ProcessOnG1158"><path id="ProcessOnPath1159" d="M436.5 418.0L489.35295686633117 418.0L489.35295686633117 418.0695524056291L542.2059137326623 418.0695524056291" stroke="#323232" stroke-width="2.0" stroke-dasharray="10.0 4.0" fill="none" marker-end="url(#ProcessOnMarker1160)"/></g><g id="ProcessOnG1162"><path id="ProcessOnPath1163" d="M1058.5 572.0L1058.5 411.0L1058.5 411.0L1058.5 268.30476487096246" stroke="#323232" stroke-width="2.0" stroke-dasharray="none" fill="none" marker-end="url(#ProcessOnMarker1164)"/></g><g id="ProcessOnG1166"><path id="ProcessOnPath1167" d="M674.8180536503578 536.6839658588632L674.8180536503578 493.8419829294316L674.8180536503578 493.8419829294316L674.8180536503578 451.0" stroke="#323232" stroke-width="2.0" stroke-dasharray="10.0 4.0" fill="none" marker-end="url(#ProcessOnMarker1168)"/></g><g id="ProcessOnG1170"><path id="ProcessOnPath1171" d="M1058.5 712.0L1058.5 922.1391048112582L677.2231843192177 922.1391048112582" stroke="#323232" stroke-width="2.0" stroke-dasharray="none" fill="none" marker-end="url(#ProcessOnMarker1172)"/></g></g></g></svg>