<svg xmlns="http://www.w3.org/2000/svg" xmlns:xlink="http://www.w3.org/1999/xlink" id="processonSvg1000" viewBox="5.0 23.0 1065.5 1286.5" width="1065.5" height="1286.5"><defs id="ProcessOnDefs1001"><marker id="ProcessOnMarker1052" markerUnits="userSpaceOnUse" orient="auto" markerWidth="14.289086868996552" markerHeight="19.055054660878554" viewBox="-0.5877852522924731 -0.8090169943749475 14.289086868996552 19.055054660878554" refX="12.0" refY="8.71851033606433"><path id="ProcessOnPath1053" d="M0 0L12.0 8.71851033606433L0 17.43702067212866" stroke="#323232" stroke-width="2.0" fill="none" transform="matrix(1.0,0.0,0.0,1.0,0.0,0.0)"/></marker><marker id="ProcessOnMarker1056" markerUnits="userSpaceOnUse" orient="auto" markerWidth="14.289086868996552" markerHeight="19.055054660878554" viewBox="-0.5877852522924731 -0.8090169943749475 14.289086868996552 19.055054660878554" refX="12.0" refY="8.71851033606433"><path id="ProcessOnPath1057" d="M0 0L12.0 8.71851033606433L0 17.43702067212866" stroke="#323232" stroke-width="2.0" fill="none" transform="matrix(1.0,0.0,0.0,1.0,0.0,0.0)"/></marker><marker id="ProcessOnMarker1065" markerUnits="userSpaceOnUse" orient="auto" markerWidth="14.289086868996552" markerHeight="19.055054660878554" viewBox="-0.5877852522924731 -0.8090169943749475 14.289086868996552 19.055054660878554" refX="12.0" refY="8.71851033606433"><path id="ProcessOnPath1066" d="M0 0L12.0 8.71851033606433L0 17.43702067212866" stroke="#323232" stroke-width="2.0" fill="none" transform="matrix(1.0,0.0,0.0,1.0,0.0,0.0)"/></marker><marker id="ProcessOnMarker1072" markerUnits="userSpaceOnUse" orient="auto" markerWidth="16.23606797749979" markerHeight="10.550836550532098" viewBox="-1.0 -1.3763819204711736 16.23606797749979 10.550836550532098" refX="-1.0" refY="3.8990363547948754"><path id="ProcessOnPath1073" d="M12.0 3.8990363547948754L0.0 7.798072709589751V0.0Z" stroke="#323232" stroke-width="2.0" fill="#323232" transform="matrix(1.0,0.0,0.0,1.0,0.0,0.0)"/></marker><marker id="ProcessOnMarker1079" markerUnits="userSpaceOnUse" orient="auto" markerWidth="16.23606797749979" markerHeight="10.550836550532098" viewBox="-1.0 -1.3763819204711736 16.23606797749979 10.550836550532098" refX="-1.0" refY="3.8990363547948754"><path id="ProcessOnPath1080" d="M12.0 3.8990363547948754L0.0 7.798072709589751V0.0Z" stroke="#323232" stroke-width="2.0" fill="#323232" transform="matrix(1.0,0.0,0.0,1.0,0.0,0.0)"/></marker><marker id="ProcessOnMarker1086" markerUnits="userSpaceOnUse" orient="auto" markerWidth="14.289086868996552" markerHeight="19.055054660878554" viewBox="-0.5877852522924731 -0.8090169943749475 14.289086868996552 19.055054660878554" refX="12.0" refY="8.71851033606433"><path id="ProcessOnPath1087" d="M0 0L12.0 8.71851033606433L0 17.43702067212866" stroke="#323232" stroke-width="2.0" fill="none" transform="matrix(1.0,0.0,0.0,1.0,0.0,0.0)"/></marker><marker id="ProcessOnMarker1097" markerUnits="userSpaceOnUse" orient="auto" markerWidth="16.23606797749979" markerHeight="10.550836550532098" viewBox="-1.0 -1.3763819204711736 16.23606797749979 10.550836550532098" refX="-1.0" refY="3.8990363547948754"><path id="ProcessOnPath1098" d="M12.0 3.8990363547948754L0.0 7.798072709589751V0.0Z" stroke="#323232" stroke-width="2.0" fill="#323232" transform="matrix(1.0,0.0,0.0,1.0,0.0,0.0)"/></marker><marker id="ProcessOnMarker1106" markerUnits="userSpaceOnUse" orient="auto" markerWidth="14.289086868996552" markerHeight="19.055054660878554" viewBox="-0.5877852522924731 -0.8090169943749475 14.289086868996552 19.055054660878554" refX="12.0" refY="8.71851033606433"><path id="ProcessOnPath1107" d="M0 0L12.0 8.71851033606433L0 17.43702067212866" stroke="#323232" stroke-width="2.0" fill="none" transform="matrix(1.0,0.0,0.0,1.0,0.0,0.0)"/></marker><marker id="ProcessOnMarker1113" markerUnits="userSpaceOnUse" orient="auto" markerWidth="14.289086868996552" markerHeight="19.055054660878554" viewBox="-0.5877852522924731 -0.8090169943749475 14.289086868996552 19.055054660878554" refX="12.0" refY="8.71851033606433"><path id="ProcessOnPath1114" d="M0 0L12.0 8.71851033606433L0 17.43702067212866" stroke="#323232" stroke-width="2.0" fill="none" transform="matrix(1.0,0.0,0.0,1.0,0.0,0.0)"/></marker><marker id="ProcessOnMarker1120" markerUnits="userSpaceOnUse" orient="auto" markerWidth="14.289086868996552" markerHeight="19.055054660878554" viewBox="-0.5877852522924731 -0.8090169943749475 14.289086868996552 19.055054660878554" refX="12.0" refY="8.71851033606433"><path id="ProcessOnPath1121" d="M0 0L12.0 8.71851033606433L0 17.43702067212866" stroke="#323232" stroke-width="2.0" fill="none" transform="matrix(1.0,0.0,0.0,1.0,0.0,0.0)"/></marker><marker id="ProcessOnMarker1127" markerUnits="userSpaceOnUse" orient="auto" markerWidth="14.289086868996552" markerHeight="19.055054660878554" viewBox="-0.5877852522924731 -0.8090169943749475 14.289086868996552 19.055054660878554" refX="12.0" refY="8.71851033606433"><path id="ProcessOnPath1128" d="M0 0L12.0 8.71851033606433L0 17.43702067212866" stroke="#323232" stroke-width="2.0" fill="none" transform="matrix(1.0,0.0,0.0,1.0,0.0,0.0)"/></marker><marker id="ProcessOnMarker1138" markerUnits="userSpaceOnUse" orient="auto" markerWidth="14.289086868996552" markerHeight="19.055054660878554" viewBox="-0.5877852522924731 -0.8090169943749475 14.289086868996552 19.055054660878554" refX="12.0" refY="8.71851033606433"><path id="ProcessOnPath1139" d="M0 0L12.0 8.71851033606433L0 17.43702067212866" stroke="#323232" stroke-width="2.0" fill="none" transform="matrix(1.0,0.0,0.0,1.0,0.0,0.0)"/></marker><marker id="ProcessOnMarker1145" markerUnits="userSpaceOnUse" orient="auto" markerWidth="14.289086868996552" markerHeight="19.055054660878554" viewBox="-0.5877852522924731 -0.8090169943749475 14.289086868996552 19.055054660878554" refX="12.0" refY="8.71851033606433"><path id="ProcessOnPath1146" d="M0 0L12.0 8.71851033606433L0 17.43702067212866" stroke="#323232" stroke-width="2.0" fill="none" transform="matrix(1.0,0.0,0.0,1.0,0.0,0.0)"/></marker><marker id="ProcessOnMarker1152" markerUnits="userSpaceOnUse" orient="auto" markerWidth="14.289086868996552" markerHeight="19.055054660878554" viewBox="-0.5877852522924731 -0.8090169943749475 14.289086868996552 19.055054660878554" refX="12.0" refY="8.71851033606433"><path id="ProcessOnPath1153" d="M0 0L12.0 8.71851033606433L0 17.43702067212866" stroke="#323232" stroke-width="2.0" fill="none" transform="matrix(1.0,0.0,0.0,1.0,0.0,0.0)"/></marker><marker id="ProcessOnMarker1159" markerUnits="userSpaceOnUse" orient="auto" markerWidth="14.289086868996552" markerHeight="19.055054660878554" viewBox="-0.5877852522924731 -0.8090169943749475 14.289086868996552 19.055054660878554" refX="12.0" refY="8.71851033606433"><path id="ProcessOnPath1160" d="M0 0L12.0 8.71851033606433L0 17.43702067212866" stroke="#323232" stroke-width="2.0" fill="none" transform="matrix(1.0,0.0,0.0,1.0,0.0,0.0)"/></marker><marker id="ProcessOnMarker1170" markerUnits="userSpaceOnUse" orient="auto" markerWidth="14.289086868996552" markerHeight="19.055054660878554" viewBox="-0.5877852522924731 -0.8090169943749475 14.289086868996552 19.055054660878554" refX="12.0" refY="8.71851033606433"><path id="ProcessOnPath1171" d="M0 0L12.0 8.71851033606433L0 17.43702067212866" stroke="#323232" stroke-width="2.0" fill="none" transform="matrix(1.0,0.0,0.0,1.0,0.0,0.0)"/></marker><marker id="ProcessOnMarker1177" markerUnits="userSpaceOnUse" orient="auto" markerWidth="16.23606797749979" markerHeight="10.550836550532098" viewBox="-1.0 -1.3763819204711736 16.23606797749979 10.550836550532098" refX="-1.0" refY="3.8990363547948754"><path id="ProcessOnPath1178" d="M12.0 3.8990363547948754L0.0 7.798072709589751V0.0Z" stroke="#323232" stroke-width="2.0" fill="#323232" transform="matrix(1.0,0.0,0.0,1.0,0.0,0.0)"/></marker><marker id="ProcessOnMarker1193" markerUnits="userSpaceOnUse" orient="auto" markerWidth="16.23606797749979" markerHeight="10.550836550532098" viewBox="-1.0 -1.3763819204711736 16.23606797749979 10.550836550532098" refX="-1.0" refY="3.8990363547948754"><path id="ProcessOnPath1194" d="M12.0 3.8990363547948754L0.0 7.798072709589751V0.0Z" stroke="#323232" stroke-width="2.0" fill="#323232" transform="matrix(1.0,0.0,0.0,1.0,0.0,0.0)"/></marker><marker id="ProcessOnMarker1200" markerUnits="userSpaceOnUse" orient="auto" markerWidth="14.289086868996552" markerHeight="19.055054660878554" viewBox="-0.5877852522924731 -0.8090169943749475 14.289086868996552 19.055054660878554" refX="12.0" refY="8.71851033606433"><path id="ProcessOnPath1201" d="M0 0L12.0 8.71851033606433L0 17.43702067212866" stroke="#323232" stroke-width="2.0" fill="none" transform="matrix(1.0,0.0,0.0,1.0,0.0,0.0)"/></marker><marker id="ProcessOnMarker1207" markerUnits="userSpaceOnUse" orient="auto" markerWidth="14.289086868996552" markerHeight="19.055054660878554" viewBox="-0.5877852522924731 -0.8090169943749475 14.289086868996552 19.055054660878554" refX="12.0" refY="8.71851033606433"><path id="ProcessOnPath1208" d="M0 0L12.0 8.71851033606433L0 17.43702067212866" stroke="#323232" stroke-width="2.0" fill="none" transform="matrix(1.0,0.0,0.0,1.0,0.0,0.0)"/></marker><marker id="ProcessOnMarker1214" markerUnits="userSpaceOnUse" orient="auto" markerWidth="14.289086868996552" markerHeight="19.055054660878554" viewBox="-0.5877852522924731 -0.8090169943749475 14.289086868996552 19.055054660878554" refX="12.0" refY="8.71851033606433"><path id="ProcessOnPath1215" d="M0 0L12.0 8.71851033606433L0 17.43702067212866" stroke="#323232" stroke-width="2.0" fill="none" transform="matrix(1.0,0.0,0.0,1.0,0.0,0.0)"/></marker><marker id="ProcessOnMarker1221" markerUnits="userSpaceOnUse" orient="auto" markerWidth="14.289086868996552" markerHeight="19.055054660878554" viewBox="-0.5877852522924731 -0.8090169943749475 14.289086868996552 19.055054660878554" refX="12.0" refY="8.71851033606433"><path id="ProcessOnPath1222" d="M0 0L12.0 8.71851033606433L0 17.43702067212866" stroke="#323232" stroke-width="2.0" fill="none" transform="matrix(1.0,0.0,0.0,1.0,0.0,0.0)"/></marker><marker id="ProcessOnMarker1228" markerUnits="userSpaceOnUse" orient="auto" markerWidth="16.23606797749979" markerHeight="10.550836550532098" viewBox="-1.0 -1.3763819204711736 16.23606797749979 10.550836550532098" refX="-1.0" refY="3.8990363547948754"><path id="ProcessOnPath1229" d="M12.0 3.8990363547948754L0.0 7.798072709589751V0.0Z" stroke="#323232" stroke-width="2.0" fill="#323232" transform="matrix(1.0,0.0,0.0,1.0,0.0,0.0)"/></marker><marker id="ProcessOnMarker1235" markerUnits="userSpaceOnUse" orient="auto" markerWidth="14.289086868996552" markerHeight="19.055054660878554" viewBox="-0.5877852522924731 -0.8090169943749475 14.289086868996552 19.055054660878554" refX="12.0" refY="8.71851033606433"><path id="ProcessOnPath1236" d="M0 0L12.0 8.71851033606433L0 17.43702067212866" stroke="#323232" stroke-width="2.0" fill="none" transform="matrix(1.0,0.0,0.0,1.0,0.0,0.0)"/></marker><marker id="ProcessOnMarker1242" markerUnits="userSpaceOnUse" orient="auto" markerWidth="14.289086868996552" markerHeight="19.055054660878554" viewBox="-0.5877852522924731 -0.8090169943749475 14.289086868996552 19.055054660878554" refX="12.0" refY="8.71851033606433"><path id="ProcessOnPath1243" d="M0 0L12.0 8.71851033606433L0 17.43702067212866" stroke="#323232" stroke-width="2.0" fill="none" transform="matrix(1.0,0.0,0.0,1.0,0.0,0.0)"/></marker><marker id="ProcessOnMarker1249" markerUnits="userSpaceOnUse" orient="auto" markerWidth="14.289086868996552" markerHeight="19.055054660878554" viewBox="-0.5877852522924731 -0.8090169943749475 14.289086868996552 19.055054660878554" refX="12.0" refY="8.71851033606433"><path id="ProcessOnPath1250" d="M0 0L12.0 8.71851033606433L0 17.43702067212866" stroke="#323232" stroke-width="2.0" fill="none" transform="matrix(1.0,0.0,0.0,1.0,0.0,0.0)"/></marker><marker id="ProcessOnMarker1256" markerUnits="userSpaceOnUse" orient="auto" markerWidth="14.289086868996552" markerHeight="19.055054660878554" viewBox="-0.5877852522924731 -0.8090169943749475 14.289086868996552 19.055054660878554" refX="12.0" refY="8.71851033606433"><path id="ProcessOnPath1257" d="M0 0L12.0 8.71851033606433L0 17.43702067212866" stroke="#323232" stroke-width="2.0" fill="none" transform="matrix(1.0,0.0,0.0,1.0,0.0,0.0)"/></marker><marker id="ProcessOnMarker1263" markerUnits="userSpaceOnUse" orient="auto" markerWidth="14.289086868996552" markerHeight="19.055054660878554" viewBox="-0.5877852522924731 -0.8090169943749475 14.289086868996552 19.055054660878554" refX="12.0" refY="8.71851033606433"><path id="ProcessOnPath1264" d="M0 0L12.0 8.71851033606433L0 17.43702067212866" stroke="#323232" stroke-width="2.0" fill="none" transform="matrix(1.0,0.0,0.0,1.0,0.0,0.0)"/></marker></defs><g id="ProcessOnG1002"><path id="ProcessOnPath1003" d="M5.0 23.0H1070.5V1309.5H5.0V23.0Z" fill="none"/><g id="ProcessOnG1004"><g id="ProcessOnG1005" transform="matrix(1.0,0.0,0.0,1.0,45.0,536.1197836166924)" opacity="1.0"><path id="ProcessOnPath1006" d="M0.0 4.0Q0.0 0.0 4.0 0.0L1001.5 0.0Q1005.5 0.0 1005.5 4.0L1005.5 749.3802163833076Q1005.5 753.3802163833076 1001.5 753.3802163833076L4.0 753.3802163833076Q0.0 753.3802163833076 0.0 749.3802163833076Z" stroke="#323232" stroke-width="2.0" stroke-dasharray="none" opacity="1.0" fill="#ffffff"/><path id="ProcessOnPath1007" d="M0.0 25.0L301.65 25.0L309.65 17.0L309.65 0.0" stroke="#323232" stroke-width="2.0" stroke-dasharray="none" opacity="1.0" fill="#ffffff"/><path id="ProcessOnPath1008" d="M0.0 0.0L1005.5 0.0L1005.5 753.3802163833076L0.0 753.3802163833076Z" stroke="none" stroke-width="0.0" stroke-dasharray="none" opacity="1.0" fill="none"/><g id="ProcessOnG1009" transform="matrix(1.0,0.0,0.0,1.0,10.0,30.0)"><text id="ProcessOnText1010" fill="#000000" font-size="13" x="0.0" y="13.325" font-family="微软雅黑" font-weight="normal" font-style="normal" text-decoration="none" family="微软雅黑" text-anchor="start" size="13">[信息合法]</text></g><g id="ProcessOnG1011" transform="matrix(1.0,0.0,0.0,1.0,10.0,0.0)"><text id="ProcessOnText1012" fill="#000000" font-size="13" x="0.0" y="13.325" font-family="微软雅黑" font-weight="normal" font-style="normal" text-decoration="none" family="微软雅黑" text-anchor="start" size="13">Opt</text></g></g><g id="ProcessOnG1013" transform="matrix(1.0,0.0,0.0,1.0,45.0,381.0)" opacity="1.0"><path id="ProcessOnPath1014" d="M0.0 4.0Q0.0 0.0 4.0 0.0L1001.5 0.0Q1005.5 0.0 1005.5 4.0L1005.5 151.11978361669242Q1005.5 155.11978361669242 1001.5 155.11978361669242L4.0 155.11978361669242Q0.0 155.11978361669242 0.0 151.11978361669242Z" stroke="#323232" stroke-width="2.0" stroke-dasharray="none" opacity="1.0" fill="#ffffff"/><path id="ProcessOnPath1015" d="M0.0 25.0L301.65 25.0L309.65 17.0L309.65 0.0" stroke="#323232" stroke-width="2.0" stroke-dasharray="none" opacity="1.0" fill="#ffffff"/><path id="ProcessOnPath1016" d="M0.0 0.0L1005.5 0.0L1005.5 155.11978361669242L0.0 155.11978361669242Z" stroke="none" stroke-width="0.0" stroke-dasharray="none" opacity="1.0" fill="none"/><g id="ProcessOnG1017" transform="matrix(1.0,0.0,0.0,1.0,10.0,30.0)"><text id="ProcessOnText1018" fill="#000000" font-size="13" x="0.0" y="13.325" font-family="微软雅黑" font-weight="normal" font-style="normal" text-decoration="none" family="微软雅黑" text-anchor="start" size="13">[信息不合法]</text></g><g id="ProcessOnG1019" transform="matrix(1.0,0.0,0.0,1.0,10.0,0.0)"><text id="ProcessOnText1020" fill="#000000" font-size="13" x="0.0" y="13.325" font-family="微软雅黑" font-weight="normal" font-style="normal" text-decoration="none" family="微软雅黑" text-anchor="start" size="13">中断</text></g></g><g id="ProcessOnG1021" transform="matrix(1.0,0.0,0.0,1.0,97.0,129.0)" opacity="1.0"><path id="ProcessOnPath1022" d="M67.5 30.0L67.5 603.0" stroke="#323232" stroke-width="2.0" stroke-dasharray="2.0 3.0" opacity="1.0" fill="none"/><path id="ProcessOnPath1023" d="M0.0 0.0L135.0 0.0L135.0 30.0L0.0 30.0Z" stroke="#323232" stroke-width="2.0" stroke-dasharray="none" opacity="1.0" fill="#ffffff"/><g id="ProcessOnG1024" transform="matrix(1.0,0.0,0.0,1.0,10.0,6.875)"><text id="ProcessOnText1025" fill="#000000" font-size="13" x="56.5" y="13.325" font-family="微软雅黑" font-weight="normal" font-style="normal" text-decoration="none" family="微软雅黑" text-anchor="middle" size="13">聊天者</text></g></g><g id="ProcessOnG1026" transform="matrix(1.0,0.0,0.0,1.0,135.0,43.0)" opacity="1.0"><path id="ProcessOnPath1027" d="M19.666666666666664 9.375C19.666666666666664 -3.125 39.33333333333333 -3.125 39.33333333333333 9.375C39.33333333333333 21.875 19.666666666666664 21.875 19.666666666666664 9.375M29.5 18.75L29.5 56.25M29.5 56.25L4.916666666666666 75.0M29.5 56.25L54.08333333333333 75.0M0.0 37.5L59.0 37.5" stroke="#323232" stroke-width="2.0" stroke-dasharray="none" opacity="1.0" fill="#ffffff"/><path id="ProcessOnPath1028" d="M0.0 0.0L59.0 0.0L59.0 75.0L0.0 75.0Z" stroke="none" stroke-width="0.0" stroke-dasharray="none" opacity="1.0" fill="none"/></g><g id="ProcessOnG1029" transform="matrix(1.0,0.0,0.0,1.0,277.0,129.0)" opacity="1.0"><path id="ProcessOnPath1030" d="M65.5 30.0L65.5 603.0" stroke="#323232" stroke-width="2.0" stroke-dasharray="2.0 3.0" opacity="1.0" fill="none"/><path id="ProcessOnPath1031" d="M0.0 0.0L131.0 0.0L131.0 30.0L0.0 30.0Z" stroke="#323232" stroke-width="2.0" stroke-dasharray="none" opacity="1.0" fill="#ffffff"/><g id="ProcessOnG1032" transform="matrix(1.0,0.0,0.0,1.0,10.0,6.875)"><text id="ProcessOnText1033" fill="#000000" font-size="13" x="54.5" y="13.325" font-family="微软雅黑" font-weight="normal" font-style="normal" text-decoration="none" family="微软雅黑" text-anchor="middle" size="13">Local Client</text></g></g><g id="ProcessOnG1034" transform="matrix(1.0,0.0,0.0,1.0,587.0,129.0)" opacity="1.0"><path id="ProcessOnPath1035" d="M65.5 30.0L65.5 603.0" stroke="#323232" stroke-width="2.0" stroke-dasharray="2.0 3.0" opacity="1.0" fill="none"/><path id="ProcessOnPath1036" d="M0.0 0.0L131.0 0.0L131.0 30.0L0.0 30.0Z" stroke="#323232" stroke-width="2.0" stroke-dasharray="none" opacity="1.0" fill="#ffffff"/><g id="ProcessOnG1037" transform="matrix(1.0,0.0,0.0,1.0,10.0,6.875)"><text id="ProcessOnText1038" fill="#000000" font-size="13" x="54.5" y="13.325" font-family="微软雅黑" font-weight="normal" font-style="normal" text-decoration="none" family="微软雅黑" text-anchor="middle" size="13">Remote Client</text></g></g><g id="ProcessOnG1039" transform="matrix(1.0,0.0,0.0,1.0,748.0,129.0)" opacity="1.0"><path id="ProcessOnPath1040" d="M57.5 30.0L57.5 1146.5" stroke="#323232" stroke-width="2.0" stroke-dasharray="2.0 3.0" opacity="1.0" fill="none"/><path id="ProcessOnPath1041" d="M0.0 0.0L115.0 0.0L115.0 30.0L0.0 30.0Z" stroke="#323232" stroke-width="2.0" stroke-dasharray="none" opacity="1.0" fill="#ffffff"/><g id="ProcessOnG1042" transform="matrix(1.0,0.0,0.0,1.0,10.0,6.875)"><text id="ProcessOnText1043" fill="#000000" font-size="13" x="46.5" y="13.325" font-family="微软雅黑" font-weight="normal" font-style="normal" text-decoration="none" family="微软雅黑" text-anchor="middle" size="13">Hub</text></g></g><g id="ProcessOnG1044" transform="matrix(1.0,0.0,0.0,1.0,45.0,175.0)" opacity="1.0"><path id="ProcessOnPath1045" d="M0.0 20.0C0.0 -6.666666666666667 40.0 -6.666666666666667 40.0 20.0C40.0 46.666666666666664 0.0 46.666666666666664 0.0 20.0Z" stroke="none" stroke-width="0.0" stroke-dasharray="none" opacity="1.0" fill="#323232"/><g id="ProcessOnG1046" transform="matrix(1.0,0.0,0.0,1.0,-20.0,46.875)"><text id="ProcessOnText1047" fill="#000000" font-size="13" x="39.0" y="13.325" font-family="微软雅黑" font-weight="normal" font-style="normal" text-decoration="none" family="微软雅黑" text-anchor="middle" size="13">感受到了孤独</text></g></g><g id="ProcessOnG1048" transform="matrix(1.0,0.0,0.0,1.0,149.5,192.0)" opacity="1.0"><path id="ProcessOnPath1049" d="M0.0 4.0Q0.0 0.0 4.0 0.0L26.0 0.0Q30.0 0.0 30.0 4.0L30.0 977.5Q30.0 981.5 26.0 981.5L4.0 981.5Q0.0 981.5 0.0 977.5L0.0 4.0Z" stroke="#323232" stroke-width="2.0" stroke-dasharray="none" opacity="1.0" fill="#ffffff"/></g><g id="ProcessOnG1050"><path id="ProcessOnPath1051" d="M85.0 195.0L149.5 195.0" stroke="#323232" stroke-width="2.0" stroke-dasharray="none" fill="none" marker-end="url(#ProcessOnMarker1052)"/></g><g id="ProcessOnG1054"><path id="ProcessOnPath1055" d="M179.5 228.5L329.2139380484327 227.97556339894527" stroke="#323232" stroke-width="2.0" stroke-dasharray="10.0 4.0" fill="none" marker-end="url(#ProcessOnMarker1056)"/><g id="ProcessOnG1058" transform="matrix(1.0,0.0,0.0,1.0,254.35696902421634,220.11278169947263)"><path id="ProcessOnPath1059" d="M0 0H26.00000000000003V16.25H0Z" fill="#fff" transform="matrix(1.0,0.0,0.0,1.0,-13.000000000000014,0.0)"/><text id="ProcessOnText1060" fill="#000000" font-size="13" x="0.0" y="13.325" font-family="微软雅黑" font-weight="normal" font-style="normal" text-decoration="none" family="微软雅黑" text-anchor="middle" size="13">创建</text></g></g><g id="ProcessOnG1061" transform="matrix(1.0,0.0,0.0,1.0,327.5,220.0598918083462)" opacity="1.0"><path id="ProcessOnPath1062" d="M0.0 4.0Q0.0 0.0 4.0 0.0L26.0 0.0Q30.0 0.0 30.0 4.0L30.0 949.4401081916537Q30.0 953.4401081916537 26.0 953.4401081916537L4.0 953.4401081916537Q0.0 953.4401081916537 0.0 949.4401081916537L0.0 4.0Z" stroke="#323232" stroke-width="2.0" stroke-dasharray="none" opacity="1.0" fill="#ffffff"/></g><g id="ProcessOnG1063"><path id="ProcessOnPath1064" d="M179.5 1128.5L327.5 1127.5" stroke="#323232" stroke-width="2.0" stroke-dasharray="none" fill="none" marker-end="url(#ProcessOnMarker1065)"/><g id="ProcessOnG1067" transform="matrix(1.0,0.0,0.0,1.0,253.5,1119.875)"><path id="ProcessOnPath1068" d="M0 0H26.0V16.25H0Z" fill="#fff" transform="matrix(1.0,0.0,0.0,1.0,-13.0,0.0)"/><text id="ProcessOnText1069" fill="#000000" font-size="13" x="0.0" y="13.325" font-family="微软雅黑" font-weight="normal" font-style="normal" text-decoration="none" family="微软雅黑" text-anchor="middle" size="13">退出</text></g></g><g id="ProcessOnG1070"><path id="ProcessOnPath1071" d="M327.5 253.5L194.7357201974982 252.6029440553885" stroke="#323232" stroke-width="2.0" stroke-dasharray="none" fill="none" marker-end="url(#ProcessOnMarker1072)"/><g id="ProcessOnG1074" transform="matrix(1.0,0.0,0.0,1.0,261.11786009874913,244.92647202769425)"><path id="ProcessOnPath1075" d="M0 0H78.0V16.24999999999997H0Z" fill="#fff" transform="matrix(1.0,0.0,0.0,1.0,-39.0,0.0)"/><text id="ProcessOnText1076" fill="#000000" font-size="13" x="0.0" y="13.325" font-family="微软雅黑" font-weight="normal" font-style="normal" text-decoration="none" family="微软雅黑" text-anchor="middle" size="13">请求个人信息</text></g></g><g id="ProcessOnG1077"><path id="ProcessOnPath1078" d="M179.5 275.5L312.2642798025018 276.3970559446115" stroke="#323232" stroke-width="2.0" stroke-dasharray="none" fill="none" marker-end="url(#ProcessOnMarker1079)"/><g id="ProcessOnG1081" transform="matrix(1.0,0.0,0.0,1.0,245.8821399012509,267.8235279723058)"><path id="ProcessOnPath1082" d="M0 0H51.99999999999997V16.25H0Z" fill="#fff" transform="matrix(1.0,0.0,0.0,1.0,-25.999999999999986,0.0)"/><text id="ProcessOnText1083" fill="#000000" font-size="13" x="0.0" y="13.325" font-family="微软雅黑" font-weight="normal" font-style="normal" text-decoration="none" family="微软雅黑" text-anchor="middle" size="13">个人信息</text></g></g><g id="ProcessOnG1084"><path id="ProcessOnPath1085" d="M357.5 306.5L487.3660254037844 308.0" stroke="#323232" stroke-width="2.0" stroke-dasharray="none" fill="none" marker-end="url(#ProcessOnMarker1086)"/><g id="ProcessOnG1088" transform="matrix(1.0,0.0,0.0,1.0,422.4330127018922,299.125)"><path id="ProcessOnPath1089" d="M0 0H26.0V16.25H0Z" fill="#fff" transform="matrix(1.0,0.0,0.0,1.0,-13.0,0.0)"/><text id="ProcessOnText1090" fill="#000000" font-size="13" x="0.0" y="13.325" font-family="微软雅黑" font-weight="normal" font-style="normal" text-decoration="none" family="微软雅黑" text-anchor="middle" size="13">上传</text></g></g><g id="ProcessOnG1091" transform="matrix(1.0,0.0,0.0,1.0,637.5,608.5)" opacity="1.0"><path id="ProcessOnPath1092" d="M0.0 4.0Q0.0 0.0 4.0 0.0L26.0 0.0Q30.0 0.0 30.0 4.0L30.0 592.0Q30.0 596.0 26.0 596.0L4.0 596.0Q0.0 596.0 0.0 592.0L0.0 4.0Z" stroke="#323232" stroke-width="2.0" stroke-dasharray="none" opacity="1.0" fill="#ffffff"/></g><g id="ProcessOnG1093" transform="matrix(1.0,0.0,0.0,1.0,790.5,642.0)" opacity="1.0"><path id="ProcessOnPath1094" d="M0.0 4.0Q0.0 0.0 4.0 0.0L26.0 0.0Q30.0 0.0 30.0 4.0L30.0 36.0Q30.0 40.0 26.0 40.0L4.0 40.0Q0.0 40.0 0.0 36.0L0.0 4.0Z" stroke="#323232" stroke-width="2.0" stroke-dasharray="none" opacity="1.0" fill="#ffffff"/></g><g id="ProcessOnG1095"><path id="ProcessOnPath1096" d="M667.5 643.7141802067947L776.1889424012219 642.4866519778496" stroke="#323232" stroke-width="2.0" stroke-dasharray="none" fill="none" marker-end="url(#ProcessOnMarker1097)"/><g id="ProcessOnG1099" transform="matrix(1.0,0.0,0.0,1.0,721.844471200611,634.9754160923221)"><path id="ProcessOnPath1100" d="M0 0H26.0V16.25H0Z" fill="#fff" transform="matrix(1.0,0.0,0.0,1.0,-13.0,0.0)"/><text id="ProcessOnText1101" fill="#000000" font-size="13" x="0.0" y="13.325" font-family="微软雅黑" font-weight="normal" font-style="normal" text-decoration="none" family="微软雅黑" text-anchor="middle" size="13">注册</text></g></g><g id="ProcessOnG1102" transform="matrix(1.0,0.0,0.0,1.0,342.0,700.5)" opacity="1.0"><path id="ProcessOnPath1103" d="M0.0 4.0Q0.0 0.0 4.0 0.0L26.0 0.0Q30.0 0.0 30.0 4.0L30.0 444.0Q30.0 448.0 26.0 448.0L4.0 448.0Q0.0 448.0 0.0 444.0L0.0 4.0Z" stroke="#323232" stroke-width="2.0" stroke-dasharray="none" opacity="1.0" fill="#ffffff"/></g><g id="ProcessOnG1104"><path id="ProcessOnPath1105" d="M327.5 826.5L179.5 825.5" stroke="#323232" stroke-width="2.0" stroke-dasharray="none" fill="none" marker-end="url(#ProcessOnMarker1106)"/><g id="ProcessOnG1108" transform="matrix(1.0,0.0,0.0,1.0,253.5,817.875)"><path id="ProcessOnPath1109" d="M0 0H65.0V16.25H0Z" fill="#fff" transform="matrix(1.0,0.0,0.0,1.0,-32.5,0.0)"/><text id="ProcessOnText1110" fill="#000000" font-size="13" x="0.0" y="13.325" font-family="微软雅黑" font-weight="normal" font-style="normal" text-decoration="none" family="微软雅黑" text-anchor="middle" size="13">进入聊天室</text></g></g><g id="ProcessOnG1111"><path id="ProcessOnPath1112" d="M179.5 867.5L327.5 869.5" stroke="#323232" stroke-width="2.0" stroke-dasharray="none" fill="none" marker-end="url(#ProcessOnMarker1113)"/><g id="ProcessOnG1115" transform="matrix(1.0,0.0,0.0,1.0,253.5,860.375)"><path id="ProcessOnPath1116" d="M0 0H52.0V16.25H0Z" fill="#fff" transform="matrix(1.0,0.0,0.0,1.0,-26.0,0.0)"/><text id="ProcessOnText1117" fill="#000000" font-size="13" x="0.0" y="13.325" font-family="微软雅黑" font-weight="normal" font-style="normal" text-decoration="none" family="微软雅黑" text-anchor="middle" size="13">发送消息</text></g></g><g id="ProcessOnG1118"><path id="ProcessOnPath1119" d="M667.5 929.5L791.0315389351832 928.6130913087035" stroke="#323232" stroke-width="2.0" stroke-dasharray="none" fill="none" marker-end="url(#ProcessOnMarker1120)"/><g id="ProcessOnG1122" transform="matrix(1.0,0.0,0.0,1.0,729.2657694675916,920.9315456543518)"><path id="ProcessOnPath1123" d="M0 0H56.0V16.25H0Z" fill="#fff" transform="matrix(1.0,0.0,0.0,1.0,-28.0,0.0)"/><text id="ProcessOnText1124" fill="#000000" font-size="13" x="0.0" y="13.325" font-family="微软雅黑" font-weight="normal" font-style="normal" text-decoration="none" family="微软雅黑" text-anchor="middle" size="13">请求广播 </text></g></g><g id="ProcessOnG1125"><path id="ProcessOnPath1126" d="M820.5 950.5L980.0 949.0" stroke="#323232" stroke-width="2.0" stroke-dasharray="none" fill="none" marker-end="url(#ProcessOnMarker1127)"/><g id="ProcessOnG1129" transform="matrix(1.0,0.0,0.0,1.0,900.25,941.625)"><path id="ProcessOnPath1130" d="M0 0H78.0V16.25H0Z" fill="#fff" transform="matrix(1.0,0.0,0.0,1.0,-39.0,0.0)"/><text id="ProcessOnText1131" fill="#000000" font-size="13" x="0.0" y="13.325" font-family="微软雅黑" font-weight="normal" font-style="normal" text-decoration="none" family="微软雅黑" text-anchor="middle" size="13">记录并且广播</text></g></g><g id="ProcessOnG1132" transform="matrix(1.0,0.0,0.0,1.0,980.0,929.0)" opacity="1.0"><path id="ProcessOnPath1133" d="M0.0 20.0C0.0 -6.666666666666667 40.0 -6.666666666666667 40.0 20.0C40.0 46.666666666666664 0.0 46.666666666666664 0.0 20.0Z" stroke="none" stroke-width="0.0" stroke-dasharray="none" opacity="1.0" fill="#323232"/></g><g id="ProcessOnG1134" transform="matrix(1.0,0.0,0.0,1.0,980.0,1008.0)" opacity="1.0"><path id="ProcessOnPath1135" d="M0.0 20.0C0.0 -6.666666666666667 40.0 -6.666666666666667 40.0 20.0C40.0 46.666666666666664 0.0 46.666666666666664 0.0 20.0Z" stroke="none" stroke-width="0.0" stroke-dasharray="none" opacity="1.0" fill="#323232"/></g><g id="ProcessOnG1136"><path id="ProcessOnPath1137" d="M980.0 1028.0L819.2233918228441 1027.142405608713" stroke="#323232" stroke-width="2.0" stroke-dasharray="none" fill="none" marker-end="url(#ProcessOnMarker1138)"/><g id="ProcessOnG1140" transform="matrix(1.0,0.0,0.0,1.0,899.611695911422,1019.4462028043565)"><path id="ProcessOnPath1141" d="M0 0H52.0V16.25H0Z" fill="#fff" transform="matrix(1.0,0.0,0.0,1.0,-26.0,0.0)"/><text id="ProcessOnText1142" fill="#000000" font-size="13" x="0.0" y="13.325" font-family="微软雅黑" font-weight="normal" font-style="normal" text-decoration="none" family="微软雅黑" text-anchor="middle" size="13">广播请求</text></g></g><g id="ProcessOnG1143"><path id="ProcessOnPath1144" d="M790.5 1042.5L667.5 1042.5" stroke="#323232" stroke-width="2.0" stroke-dasharray="none" fill="none" marker-end="url(#ProcessOnMarker1145)"/><g id="ProcessOnG1147" transform="matrix(1.0,0.0,0.0,1.0,729.0,1034.375)"><path id="ProcessOnPath1148" d="M0 0H52.0V16.25H0Z" fill="#fff" transform="matrix(1.0,0.0,0.0,1.0,-26.0,0.0)"/><text id="ProcessOnText1149" fill="#000000" font-size="13" x="0.0" y="13.325" font-family="微软雅黑" font-weight="normal" font-style="normal" text-decoration="none" family="微软雅黑" text-anchor="middle" size="13">广播消息</text></g></g><g id="ProcessOnG1150"><path id="ProcessOnPath1151" d="M667.5 1186.5L792.0711504387461 1187.564177772476" stroke="#323232" stroke-width="2.0" stroke-dasharray="none" fill="none" marker-end="url(#ProcessOnMarker1152)"/><g id="ProcessOnG1154" transform="matrix(1.0,0.0,0.0,1.0,729.7855752193731,1178.907088886238)"><path id="ProcessOnPath1155" d="M0 0H26.0V16.25H0Z" fill="#fff" transform="matrix(1.0,0.0,0.0,1.0,-13.0,0.0)"/><text id="ProcessOnText1156" fill="#000000" font-size="13" x="0.0" y="13.325" font-family="微软雅黑" font-weight="normal" font-style="normal" text-decoration="none" family="微软雅黑" text-anchor="middle" size="13">注销</text></g></g><g id="ProcessOnG1157"><path id="ProcessOnPath1158" d="M819.6703708685546 677.2059047744874L980.0 677.0" stroke="#323232" stroke-width="2.0" stroke-dasharray="none" fill="none" marker-end="url(#ProcessOnMarker1159)"/><g id="ProcessOnG1161" transform="matrix(1.0,0.0,0.0,1.0,899.8351854342773,668.9779523872437)"><path id="ProcessOnPath1162" d="M0 0H78.0V16.25H0Z" fill="#fff" transform="matrix(1.0,0.0,0.0,1.0,-39.0,0.0)"/><text id="ProcessOnText1163" fill="#000000" font-size="13" x="0.0" y="13.325" font-family="微软雅黑" font-weight="normal" font-style="normal" text-decoration="none" family="微软雅黑" text-anchor="middle" size="13">记录并且广播</text></g></g><g id="ProcessOnG1164" transform="matrix(1.0,0.0,0.0,1.0,980.0,657.0)" opacity="1.0"><path id="ProcessOnPath1165" d="M0.0 20.0C0.0 -6.666666666666667 40.0 -6.666666666666667 40.0 20.0C40.0 46.666666666666664 0.0 46.666666666666664 0.0 20.0Z" stroke="none" stroke-width="0.0" stroke-dasharray="none" opacity="1.0" fill="#323232"/></g><g id="ProcessOnG1166" transform="matrix(1.0,0.0,0.0,1.0,980.0,1193.0)" opacity="1.0"><path id="ProcessOnPath1167" d="M0.0 20.0C0.0 -6.666666666666667 40.0 -6.666666666666667 40.0 20.0C40.0 46.666666666666664 0.0 46.666666666666664 0.0 20.0Z" stroke="none" stroke-width="0.0" stroke-dasharray="none" opacity="1.0" fill="#323232"/></g><g id="ProcessOnG1168"><path id="ProcessOnPath1169" d="M819.515221207633 1213.1513770290094L980.0 1213.0" stroke="#323232" stroke-width="2.0" stroke-dasharray="none" fill="none" marker-end="url(#ProcessOnMarker1170)"/><g id="ProcessOnG1172" transform="matrix(1.0,0.0,0.0,1.0,899.7576106038165,1204.9506885145047)"><path id="ProcessOnPath1173" d="M0 0H78.0V16.25H0Z" fill="#fff" transform="matrix(1.0,0.0,0.0,1.0,-39.0,0.0)"/><text id="ProcessOnText1174" fill="#000000" font-size="13" x="0.0" y="13.325" font-family="微软雅黑" font-weight="normal" font-style="normal" text-decoration="none" family="微软雅黑" text-anchor="middle" size="13">记录并且广播</text></g></g><g id="ProcessOnG1175"><path id="ProcessOnPath1176" d="M357.5 660.5L400.7018666706431 660.5L400.7018666706431 703.5153806192624L385.93793464814286 703.5153806192624" stroke="#323232" stroke-width="2.0" stroke-dasharray="none" fill="none" marker-end="url(#ProcessOnMarker1177)"/><g id="ProcessOnG1179" transform="matrix(1.0,0.0,0.0,1.0,400.7018666706431,659.6637229855597)"><path id="ProcessOnPath1180" d="M0 0H66.0V16.25H0Z" fill="#fff" transform="matrix(1.0,0.0,0.0,1.0,-33.0,0.0)"/><text id="ProcessOnText1181" fill="#000000" font-size="13" x="0.0" y="13.325" font-family="微软雅黑" font-weight="normal" font-style="normal" text-decoration="none" family="微软雅黑" text-anchor="middle" size="13">cookie传递</text></g></g><g id="ProcessOnG1182" transform="matrix(1.0,0.0,0.0,1.0,435.0,129.0)" opacity="1.0"><path id="ProcessOnPath1183" d="M67.0 30.0L67.0 1146.5" stroke="#323232" stroke-width="2.0" stroke-dasharray="2.0 3.0" opacity="1.0" fill="none"/><path id="ProcessOnPath1184" d="M0.0 0.0L134.0 0.0L134.0 30.0L0.0 30.0Z" stroke="#323232" stroke-width="2.0" stroke-dasharray="none" opacity="1.0" fill="#ffffff"/><g id="ProcessOnG1185" transform="matrix(1.0,0.0,0.0,1.0,10.0,6.875)"><text id="ProcessOnText1186" fill="#000000" font-size="13" x="56.0" y="13.325" font-family="微软雅黑" font-weight="normal" font-style="normal" text-decoration="none" family="微软雅黑" text-anchor="middle" size="13">HTTPServer</text></g></g><g id="ProcessOnG1187" transform="matrix(1.0,0.0,0.0,1.0,487.0,304.5)" opacity="1.0"><path id="ProcessOnPath1188" d="M0.0 4.0Q0.0 0.0 4.0 0.0L26.0 0.0Q30.0 0.0 30.0 4.0L30.0 409.5Q30.0 413.5 26.0 413.5L4.0 413.5Q0.0 413.5 0.0 409.5L0.0 4.0Z" stroke="#323232" stroke-width="2.0" stroke-dasharray="none" opacity="1.0" fill="#ffffff"/></g><g id="ProcessOnG1189" transform="matrix(1.0,0.0,0.0,1.0,503.0,349.0)" opacity="1.0"><path id="ProcessOnPath1190" d="M0.0 4.0Q0.0 0.0 4.0 0.0L26.0 0.0Q30.0 0.0 30.0 4.0L30.0 110.0Q30.0 114.0 26.0 114.0L4.0 114.0Q0.0 114.0 0.0 110.0L0.0 4.0Z" stroke="#323232" stroke-width="2.0" stroke-dasharray="none" opacity="1.0" fill="#ffffff"/></g><g id="ProcessOnG1191"><path id="ProcessOnPath1192" d="M516.5 316.5L562.0303844939756 316.5L562.0303844939756 357.37591784508066L547.2664524714754 357.37591784508066" stroke="#323232" stroke-width="2.0" stroke-dasharray="none" fill="none" marker-end="url(#ProcessOnMarker1193)"/><g id="ProcessOnG1195" transform="matrix(1.0,0.0,0.0,1.0,562.0303844939756,313.4297326868026)"><path id="ProcessOnPath1196" d="M0 0H65.0V16.25H0Z" fill="#fff" transform="matrix(1.0,0.0,0.0,1.0,-32.5,0.0)"/><text id="ProcessOnText1197" fill="#000000" font-size="13" x="0.0" y="13.325" font-family="微软雅黑" font-weight="normal" font-style="normal" text-decoration="none" family="微软雅黑" text-anchor="middle" size="13">验证合法性</text></g></g><g id="ProcessOnG1198"><path id="ProcessOnPath1199" d="M487.5 486.5L422.5 486.5L422.5 485.5L357.5 485.5" stroke="#323232" stroke-width="2.0" stroke-dasharray="none" fill="none" marker-end="url(#ProcessOnMarker1200)"/><g id="ProcessOnG1202" transform="matrix(1.0,0.0,0.0,1.0,422.5,477.875)"><path id="ProcessOnPath1203" d="M0 0H26.0V16.25H0Z" fill="#fff" transform="matrix(1.0,0.0,0.0,1.0,-13.0,0.0)"/><text id="ProcessOnText1204" fill="#000000" font-size="13" x="0.0" y="13.325" font-family="微软雅黑" font-weight="normal" font-style="normal" text-decoration="none" family="微软雅黑" text-anchor="middle" size="13">拒绝</text></g></g><g id="ProcessOnG1205"><path id="ProcessOnPath1206" d="M327.5 503.5L253.5 503.5L253.5 503.5L179.5 503.5" stroke="#323232" stroke-width="2.0" stroke-dasharray="none" fill="none" marker-end="url(#ProcessOnMarker1207)"/><g id="ProcessOnG1209" transform="matrix(1.0,0.0,0.0,1.0,253.5,495.375)"><path id="ProcessOnPath1210" d="M0 0H26.0V16.25H0Z" fill="#fff" transform="matrix(1.0,0.0,0.0,1.0,-13.0,0.0)"/><text id="ProcessOnText1211" fill="#000000" font-size="13" x="0.0" y="13.325" font-family="微软雅黑" font-weight="normal" font-style="normal" text-decoration="none" family="微软雅黑" text-anchor="middle" size="13">失败</text></g></g><g id="ProcessOnG1212"><path id="ProcessOnPath1213" d="M516.5 612.5L577.0 612.5L577.0 612.5L637.5 612.5" stroke="#323232" stroke-width="2.0" stroke-dasharray="10.0 4.0" fill="none" marker-end="url(#ProcessOnMarker1214)"/><g id="ProcessOnG1216" transform="matrix(1.0,0.0,0.0,1.0,577.0,604.375)"><path id="ProcessOnPath1217" d="M0 0H26.0V16.25H0Z" fill="#fff" transform="matrix(1.0,0.0,0.0,1.0,-13.0,0.0)"/><text id="ProcessOnText1218" fill="#000000" font-size="13" x="0.0" y="13.325" font-family="微软雅黑" font-weight="normal" font-style="normal" text-decoration="none" family="微软雅黑" text-anchor="middle" size="13">创建</text></g></g><g id="ProcessOnG1219"><path id="ProcessOnPath1220" d="M487.5 635.5L357.5 635.5" stroke="#323232" stroke-width="2.0" stroke-dasharray="none" fill="none" marker-end="url(#ProcessOnMarker1221)"/><g id="ProcessOnG1223" transform="matrix(1.0,0.0,0.0,1.0,422.5,627.375)"><path id="ProcessOnPath1224" d="M0 0H78.0V16.25H0Z" fill="#fff" transform="matrix(1.0,0.0,0.0,1.0,-39.0,0.0)"/><text id="ProcessOnText1225" fill="#000000" font-size="13" x="0.0" y="13.325" font-family="微软雅黑" font-weight="normal" font-style="normal" text-decoration="none" family="微软雅黑" text-anchor="middle" size="13">准许进入聊天</text></g></g><g id="ProcessOnG1226"><path id="ProcessOnPath1227" d="M371.5 752.5L622.266622965968 757.213658326428" stroke="#323232" stroke-width="2.0" stroke-dasharray="none" fill="none" marker-end="url(#ProcessOnMarker1228)"/><g id="ProcessOnG1230" transform="matrix(1.0,0.0,0.0,1.0,496.883311482984,746.731829163214)"><path id="ProcessOnPath1231" d="M0 0H52.0V16.25H0Z" fill="#fff" transform="matrix(1.0,0.0,0.0,1.0,-26.0,0.0)"/><text id="ProcessOnText1232" fill="#000000" font-size="13" x="0.0" y="13.325" font-family="微软雅黑" font-weight="normal" font-style="normal" text-decoration="none" family="微软雅黑" text-anchor="middle" size="13">建立信道</text></g></g><g id="ProcessOnG1233"><path id="ProcessOnPath1234" d="M637.5 809.5L371.5 808.5" stroke="#323232" stroke-width="2.0" stroke-dasharray="none" fill="none" marker-end="url(#ProcessOnMarker1235)"/><g id="ProcessOnG1237" transform="matrix(1.0,0.0,0.0,1.0,504.5,800.875)"><path id="ProcessOnPath1238" d="M0 0H52.0V16.25H0Z" fill="#fff" transform="matrix(1.0,0.0,0.0,1.0,-26.0,0.0)"/><text id="ProcessOnText1239" fill="#000000" font-size="13" x="0.0" y="13.325" font-family="微软雅黑" font-weight="normal" font-style="normal" text-decoration="none" family="微软雅黑" text-anchor="middle" size="13">建立信道</text></g></g><g id="ProcessOnG1240"><path id="ProcessOnPath1241" d="M371.5 899.5L637.5 902.5" stroke="#323232" stroke-width="2.0" stroke-dasharray="none" fill="none" marker-end="url(#ProcessOnMarker1242)"/><g id="ProcessOnG1244" transform="matrix(1.0,0.0,0.0,1.0,504.5,892.875)"><path id="ProcessOnPath1245" d="M0 0H52.0V16.25H0Z" fill="#fff" transform="matrix(1.0,0.0,0.0,1.0,-26.0,0.0)"/><text id="ProcessOnText1246" fill="#000000" font-size="13" x="0.0" y="13.325" font-family="微软雅黑" font-weight="normal" font-style="normal" text-decoration="none" family="微软雅黑" text-anchor="middle" size="13">上传消息</text></g></g><g id="ProcessOnG1247"><path id="ProcessOnPath1248" d="M637.5 1058.5L371.5 1060.5" stroke="#323232" stroke-width="2.0" stroke-dasharray="none" fill="none" marker-end="url(#ProcessOnMarker1249)"/><g id="ProcessOnG1251" transform="matrix(1.0,0.0,0.0,1.0,504.5,1051.375)"><path id="ProcessOnPath1252" d="M0 0H52.0V16.25H0Z" fill="#fff" transform="matrix(1.0,0.0,0.0,1.0,-26.0,0.0)"/><text id="ProcessOnText1253" fill="#000000" font-size="13" x="0.0" y="13.325" font-family="微软雅黑" font-weight="normal" font-style="normal" text-decoration="none" family="微软雅黑" text-anchor="middle" size="13">下传消息</text></g></g><g id="ProcessOnG1254"><path id="ProcessOnPath1255" d="M327.5 1072.5L179.5 1070.5" stroke="#323232" stroke-width="2.0" stroke-dasharray="none" fill="none" marker-end="url(#ProcessOnMarker1256)"/><g id="ProcessOnG1258" transform="matrix(1.0,0.0,0.0,1.0,253.5,1063.375)"><path id="ProcessOnPath1259" d="M0 0H52.0V16.25H0Z" fill="#fff" transform="matrix(1.0,0.0,0.0,1.0,-26.0,0.0)"/><text id="ProcessOnText1260" fill="#000000" font-size="13" x="0.0" y="13.325" font-family="微软雅黑" font-weight="normal" font-style="normal" text-decoration="none" family="微软雅黑" text-anchor="middle" size="13">接受消息</text></g></g><g id="ProcessOnG1261"><path id="ProcessOnPath1262" d="M371.5 1140.5L637.5 1141.5" stroke="#323232" stroke-width="2.0" stroke-dasharray="none" fill="none" marker-end="url(#ProcessOnMarker1263)"/><g id="ProcessOnG1265" transform="matrix(1.0,0.0,0.0,1.0,504.5,1132.875)"><path id="ProcessOnPath1266" d="M0 0H52.0V16.25H0Z" fill="#fff" transform="matrix(1.0,0.0,0.0,1.0,-26.0,0.0)"/><text id="ProcessOnText1267" fill="#000000" font-size="13" x="0.0" y="13.325" font-family="微软雅黑" font-weight="normal" font-style="normal" text-decoration="none" family="微软雅黑" text-anchor="middle" size="13">断开信道</text></g></g><g id="ProcessOnG1268" transform="matrix(1.0,0.0,0.0,1.0,790.5,925.5)" opacity="1.0"><path id="ProcessOnPath1269" d="M0.0 4.0Q0.0 0.0 4.0 0.0L26.0 0.0Q30.0 0.0 30.0 4.0L30.0 31.0Q30.0 35.0 26.0 35.0L4.0 35.0Q0.0 35.0 0.0 31.0L0.0 4.0Z" stroke="#323232" stroke-width="2.0" stroke-dasharray="none" opacity="1.0" fill="#ffffff"/></g><g id="ProcessOnG1270" transform="matrix(1.0,0.0,0.0,1.0,790.5,1026.5)" opacity="1.0"><path id="ProcessOnPath1271" d="M0.0 4.0Q0.0 0.0 4.0 0.0L26.0 0.0Q30.0 0.0 30.0 4.0L30.0 24.0Q30.0 28.0 26.0 28.0L4.0 28.0Q0.0 28.0 0.0 24.0L0.0 4.0Z" stroke="#323232" stroke-width="2.0" stroke-dasharray="none" opacity="1.0" fill="#ffffff"/></g><g id="ProcessOnG1272" transform="matrix(1.0,0.0,0.0,1.0,790.5,1186.0)" opacity="1.0"><path id="ProcessOnPath1273" d="M0.0 4.0Q0.0 0.0 4.0 0.0L26.0 0.0Q30.0 0.0 30.0 4.0L30.0 30.0Q30.0 34.0 26.0 34.0L4.0 34.0Q0.0 34.0 0.0 30.0L0.0 4.0Z" stroke="#323232" stroke-width="2.0" stroke-dasharray="none" opacity="1.0" fill="#ffffff"/></g></g></g></svg>