<svg xmlns="http://www.w3.org/2000/svg" xmlns:xlink="http://www.w3.org/1999/xlink" id="processonSvg1000" viewBox="512.479664521455 161.56761038760993 501.020335478545 707.2791869286048" width="501.020335478545" height="707.2791869286048"><defs id="ProcessOnDefs1001"><marker id="ProcessOnMarker1017" markerUnits="userSpaceOnUse" orient="auto" markerWidth="14.289086868996552" markerHeight="19.055054660878554" viewBox="-0.5877852522924731 -0.8090169943749475 14.289086868996552 19.055054660878554" refX="1.1135163644116066" refY="8.71851033606433"><path id="ProcessOnPath1018" d="M0 0L12.0 8.71851033606433L0 17.43702067212866" stroke="#323232" stroke-width="2.0" fill="none" transform="matrix(-1.0,1.2246467991473532E-16,-1.2246467991473532E-16,-1.0,13.113516364411606,17.43702067212866)"/></marker><marker id="ProcessOnMarker1024" markerUnits="userSpaceOnUse" orient="auto" markerWidth="16.23606797749979" markerHeight="10.550836550532098" viewBox="-1.0 -1.3763819204711736 16.23606797749979 10.550836550532098" refX="-1.0" refY="3.8990363547948754"><path id="ProcessOnPath1025" d="M12.0 3.8990363547948754L0.0 7.798072709589751V0.0Z" stroke="#323232" stroke-width="2.0" fill="#323232" transform="matrix(1.0,0.0,0.0,1.0,0.0,0.0)"/></marker><marker id="ProcessOnMarker1031" markerUnits="userSpaceOnUse" orient="auto" markerWidth="14.289086868996552" markerHeight="19.055054660878554" viewBox="-0.5877852522924731 -0.8090169943749475 14.289086868996552 19.055054660878554" refX="1.1135163644116066" refY="8.71851033606433"><path id="ProcessOnPath1032" d="M0 0L12.0 8.71851033606433L0 17.43702067212866" stroke="#323232" stroke-width="2.0" fill="none" transform="matrix(-1.0,1.2246467991473532E-16,-1.2246467991473532E-16,-1.0,13.113516364411606,17.43702067212866)"/></marker><marker id="ProcessOnMarker1059" markerUnits="userSpaceOnUse" orient="auto" markerWidth="14.289086868996552" markerHeight="19.055054660878554" viewBox="-0.5877852522924731 -0.8090169943749475 14.289086868996552 19.055054660878554" refX="1.1135163644116066" refY="8.71851033606433"><path id="ProcessOnPath1060" d="M0 0L12.0 8.71851033606433L0 17.43702067212866" stroke="#323232" stroke-width="2.0" fill="none" transform="matrix(-1.0,1.2246467991473532E-16,-1.2246467991473532E-16,-1.0,13.113516364411606,17.43702067212866)"/></marker><marker id="ProcessOnMarker1061" markerUnits="userSpaceOnUse" orient="auto" markerWidth="14.289086868996552" markerHeight="19.055054660878554" viewBox="-0.5877852522924731 -0.8090169943749475 14.289086868996552 19.055054660878554" refX="12.0" refY="8.71851033606433"><path id="ProcessOnPath1062" d="M0 0L12.0 8.71851033606433L0 17.43702067212866" stroke="#323232" stroke-width="2.0" fill="none" transform="matrix(1.0,0.0,0.0,1.0,0.0,0.0)"/></marker><marker id="ProcessOnMarker1065" markerUnits="userSpaceOnUse" orient="auto" markerWidth="14.289086868996552" markerHeight="19.055054660878554" viewBox="-0.5877852522924731 -0.8090169943749475 14.289086868996552 19.055054660878554" refX="1.1135163644116066" refY="8.71851033606433"><path id="ProcessOnPath1066" d="M0 0L12.0 8.71851033606433L0 17.43702067212866" stroke="#323232" stroke-width="2.0" fill="none" transform="matrix(-1.0,1.2246467991473532E-16,-1.2246467991473532E-16,-1.0,13.113516364411606,17.43702067212866)"/></marker><marker id="ProcessOnMarker1067" markerUnits="userSpaceOnUse" orient="auto" markerWidth="14.289086868996552" markerHeight="19.055054660878554" viewBox="-0.5877852522924731 -0.8090169943749475 14.289086868996552 19.055054660878554" refX="12.0" refY="8.71851033606433"><path id="ProcessOnPath1068" d="M0 0L12.0 8.71851033606433L0 17.43702067212866" stroke="#323232" stroke-width="2.0" fill="none" transform="matrix(1.0,0.0,0.0,1.0,0.0,0.0)"/></marker><marker id="ProcessOnMarker1081" markerUnits="userSpaceOnUse" orient="auto" markerWidth="14.289086868996552" markerHeight="19.055054660878554" viewBox="-0.5877852522924731 -0.8090169943749475 14.289086868996552 19.055054660878554" refX="1.1135163644116066" refY="8.71851033606433"><path id="ProcessOnPath1082" d="M0 0L12.0 8.71851033606433L0 17.43702067212866" stroke="#323232" stroke-width="2.0" fill="none" transform="matrix(-1.0,1.2246467991473532E-16,-1.2246467991473532E-16,-1.0,13.113516364411606,17.43702067212866)"/></marker><marker id="ProcessOnMarker1083" markerUnits="userSpaceOnUse" orient="auto" markerWidth="14.289086868996552" markerHeight="19.055054660878554" viewBox="-0.5877852522924731 -0.8090169943749475 14.289086868996552 19.055054660878554" refX="12.0" refY="8.71851033606433"><path id="ProcessOnPath1084" d="M0 0L12.0 8.71851033606433L0 17.43702067212866" stroke="#323232" stroke-width="2.0" fill="none" transform="matrix(1.0,0.0,0.0,1.0,0.0,0.0)"/></marker><marker id="ProcessOnMarker1087" markerUnits="userSpaceOnUse" orient="auto" markerWidth="14.289086868996552" markerHeight="19.055054660878554" viewBox="-0.5877852522924731 -0.8090169943749475 14.289086868996552 19.055054660878554" refX="1.1135163644116066" refY="8.71851033606433"><path id="ProcessOnPath1088" d="M0 0L12.0 8.71851033606433L0 17.43702067212866" stroke="#323232" stroke-width="2.0" fill="none" transform="matrix(-1.0,1.2246467991473532E-16,-1.2246467991473532E-16,-1.0,13.113516364411606,17.43702067212866)"/></marker><marker id="ProcessOnMarker1089" markerUnits="userSpaceOnUse" orient="auto" markerWidth="14.289086868996552" markerHeight="19.055054660878554" viewBox="-0.5877852522924731 -0.8090169943749475 14.289086868996552 19.055054660878554" refX="12.0" refY="8.71851033606433"><path id="ProcessOnPath1090" d="M0 0L12.0 8.71851033606433L0 17.43702067212866" stroke="#323232" stroke-width="2.0" fill="none" transform="matrix(1.0,0.0,0.0,1.0,0.0,0.0)"/></marker><marker id="ProcessOnMarker1103" markerUnits="userSpaceOnUse" orient="auto" markerWidth="14.289086868996552" markerHeight="19.055054660878554" viewBox="-0.5877852522924731 -0.8090169943749475 14.289086868996552 19.055054660878554" refX="12.0" refY="8.71851033606433"><path id="ProcessOnPath1104" d="M0 0L12.0 8.71851033606433L0 17.43702067212866" stroke="#323232" stroke-width="2.0" fill="none" transform="matrix(1.0,0.0,0.0,1.0,0.0,0.0)"/></marker><marker id="ProcessOnMarker1110" markerUnits="userSpaceOnUse" orient="auto" markerWidth="14.289086868996552" markerHeight="19.055054660878554" viewBox="-0.5877852522924731 -0.8090169943749475 14.289086868996552 19.055054660878554" refX="12.0" refY="8.71851033606433"><path id="ProcessOnPath1111" d="M0 0L12.0 8.71851033606433L0 17.43702067212866" stroke="#323232" stroke-width="2.0" fill="none" transform="matrix(1.0,0.0,0.0,1.0,0.0,0.0)"/></marker></defs><g id="ProcessOnG1002"><path id="ProcessOnPath1003" d="M512.479664521455 161.56761038760993H1013.5V868.8467973162146H512.479664521455V161.56761038760988Z" fill="none"/><g id="ProcessOnG1004"><g id="ProcessOnG1005" transform="matrix(1.0,0.0,0.0,1.0,533.5,331.5)" opacity="1.0"><path id="ProcessOnPath1006" d="M0.0 0.0L460.0 0.0L460.0 377.0L0.0 377.0Z" stroke="#323232" stroke-width="2.0" stroke-dasharray="none" opacity="1.0" fill="#ffffff"/><g id="ProcessOnG1007" transform="matrix(1.0,0.0,0.0,1.0,10.0,0.0)"><text id="ProcessOnText1008" fill="#000000" font-size="13" x="438.0" y="13.325" font-family="微软雅黑" font-weight="normal" font-style="normal" text-decoration="none" family="微软雅黑" text-anchor="end" size="13"></text><text id="ProcessOnText1009" fill="#000000" font-size="13" x="438.0" y="29.575" font-family="微软雅黑" font-weight="normal" font-style="normal" text-decoration="none" family="微软雅黑" text-anchor="end" size="13">System</text></g></g><g id="ProcessOnG1010" transform="matrix(1.0,0.0,0.0,1.0,753.0,500.0)" opacity="1.0"><g id="ProcessOnG1012" transform="matrix(1.0,0.0,0.0,1.0,0.0,0.0)"> <g id="g12" transform="scale(0.1,0.1)"> <path id="path22" fill="#026C9B" d="M705.574,192.498l94.395-192.5H146.887L0.061,192.498H705.574"/> <path id="path24" fill="none" stroke="#FFFFFF" stroke-width="4" d="M705.574,192.498l94.395-192.5H146.887L0.061,192.498H705.574z "/> <path id="path26" fill="#026C9B" d="M799.998,174.675L799.968-0.002l-94.395,192.5v207.5L799.998,174.675"/> <path id="path28" fill="none" stroke="#FFFFFF" stroke-width="4" d="M799.998,174.675L799.968-0.002l-94.395,192.5v207.5 L799.998,174.675z"/> <path id="path30" fill="#026C9B" d="M705.574,399.997v-207.5H-0.002l0.293,207.5H705.574"/> <path id="path32" fill="none" stroke="#FFFFFF" stroke-width="4" d="M705.574,399.997v-207.5H-0.002l0.293,207.5H705.574z"/> <path id="path34" fill="#026C9B" d="M74.343,367.995h42.778v-42.598H74.343V367.995z"/> <path id="path36" fill="none" stroke="#FFFFFF" stroke-width="4" d="M74.343,367.995h42.778v-42.598H74.343V367.995z"/> <path id="path38" fill="#026C9B" d="M136.033,367.995h42.783v-42.598h-42.783V367.995z"/> <path id="path40" fill="none" stroke="#FFFFFF" stroke-width="4" d="M136.033,367.995h42.783v-42.598h-42.783V367.995z"/> <path id="path42" fill="#026C9B" d="M197.727,367.995h42.778v-42.598h-42.778V367.995z"/> <path id="path44" fill="none" stroke="#FFFFFF" stroke-width="4" d="M197.727,367.995h42.778v-42.598h-42.778V367.995z"/> <path id="path46" fill="#026C9B" d="M259.407,367.995h42.671v-42.598h-42.671V367.995z"/> <path id="path48" fill="none" stroke="#FFFFFF" stroke-width="4" d="M259.407,367.995h42.671v-42.598h-42.671V367.995z"/> <path id="path50" fill="#026C9B" d="M321.101,367.995h42.656v-42.598h-42.656V367.995z"/> <path id="path52" fill="none" stroke="#FFFFFF" stroke-width="4" d="M321.101,367.995h42.656v-42.598h-42.656V367.995z"/> <path id="path54" fill="#026C9B" d="M382.791,367.995h42.793v-42.598h-42.793V367.995z"/> <path id="path56" fill="none" stroke="#FFFFFF" stroke-width="4" d="M382.791,367.995h42.793v-42.598h-42.793V367.995z"/> <path id="path58" fill="#026C9B" d="M444.49,367.995h42.783v-42.598H444.49V367.995z"/> <path id="path60" fill="none" stroke="#FFFFFF" stroke-width="4" d="M444.49,367.995h42.783v-42.598H444.49V367.995z"/> <path id="path62" fill="#026C9B" d="M506.179,367.995h42.773v-42.598h-42.773V367.995z"/> <path id="path64" fill="none" stroke="#FFFFFF" stroke-width="4" d="M506.179,367.995h42.773v-42.598h-42.773V367.995z"/> <path id="path66" fill="#026C9B" d="M567.869,367.995h42.529v-42.598h-42.529V367.995z"/> <path id="path68" fill="none" stroke="#FFFFFF" stroke-width="4" d="M567.869,367.995h42.529v-42.598h-42.529V367.995z"/> <path id="path70" fill="#FFFFFF" d="M592.839,87.595l22.021-26.152l46.992,29.658l-93.838,26.084l19.492-21.104H400.085 l6.768-8.486H592.839"/> <path id="path72" fill="#FFFFFF" d="M417.976,87.498l-5.449,8.613H226.555l-19.785,18.965l-50.425-24.082l101.436-31.787 l-25.771,28.291H417.976"/> </g>  </g><g id="ProcessOnG1013" transform="matrix(1.0,0.0,0.0,1.0,-20.0,46.875)"><text id="ProcessOnText1014" fill="#000000" font-size="13" x="59.0" y="13.325" font-family="微软雅黑" font-weight="normal" font-style="normal" text-decoration="none" family="微软雅黑" text-anchor="middle" size="13">集线器</text></g></g><g id="ProcessOnG1015"><path id="ProcessOnPath1016" d="M641.0 520.0C581.979664521455 520.0 532.479664521455 659.0 591.5 659.0" stroke="#323232" stroke-width="2.0" stroke-dasharray="none" fill="none" marker-start="url(#ProcessOnMarker1017)"/><g id="ProcessOnG1019" transform="matrix(1.0,0.0,0.0,1.0,571.9847483910912,581.375)"><path id="ProcessOnPath1020" d="M0 0H52.0V16.25H0Z" fill="#fff" transform="matrix(1.0,0.0,0.0,1.0,-26.0,0.0)"/><text id="ProcessOnText1021" fill="#000000" font-size="13" x="0.0" y="13.325" font-family="微软雅黑" font-weight="normal" font-style="normal" text-decoration="none" family="微软雅黑" text-anchor="middle" size="13">请求广播</text></g></g><g id="ProcessOnG1022"><path id="ProcessOnPath1023" d="M833.0 520.0C862.6 520.0 877.4 520.0 891.7639320225002 520.0" stroke="#323232" stroke-width="2.0" stroke-dasharray="none" fill="none" marker-end="url(#ProcessOnMarker1024)"/><g id="ProcessOnG1026" transform="matrix(1.0,0.0,0.0,1.0,868.0954915028125,511.875)"><path id="ProcessOnPath1027" d="M0 0H26.0V16.25H0Z" fill="#fff" transform="matrix(1.0,0.0,0.0,1.0,-13.0,0.0)"/><text id="ProcessOnText1028" fill="#000000" font-size="13" x="0.0" y="13.325" font-family="微软雅黑" font-weight="normal" font-style="normal" text-decoration="none" family="微软雅黑" text-anchor="middle" size="13">记录</text></g></g><g id="ProcessOnG1029"><path id="ProcessOnPath1030" d="M669.5 481.5C624.5 436.0 555.5 354.0 638.0 381.0" stroke="#323232" stroke-width="2.0" stroke-dasharray="none" fill="none" marker-start="url(#ProcessOnMarker1031)"/><g id="ProcessOnG1033" transform="matrix(1.0,0.0,0.0,1.0,605.9375,395.9375)"><path id="ProcessOnPath1034" d="M0 0H52.0V16.25H0Z" fill="#fff" transform="matrix(1.0,0.0,0.0,1.0,-26.0,0.0)"/><text id="ProcessOnText1035" fill="#000000" font-size="13" x="0.0" y="13.325" font-family="微软雅黑" font-weight="normal" font-style="normal" text-decoration="none" family="微软雅黑" text-anchor="middle" size="13">请求广播</text></g></g><g id="ProcessOnG1036" transform="matrix(1.0,0.0,0.0,1.0,907.0,481.0)" opacity="1.0"><g id="ProcessOnG1038" transform="matrix(1.0,0.0,0.0,1.0,0.0,0.0)"> <g id="g12" transform="scale(0.1,0.1)"> <path id="path22" fill="#087FBF" d="M237.573,219.392L116.606,32.517l32.295-32.52l124.971,186.875L237.573,219.392"/> <path id="path24" fill="none" stroke="#FFFFFF" stroke-width="4" d="M237.573,219.392L116.606,32.517l32.295-32.52l124.971,186.875 L237.573,219.392z"/> <path id="path26" fill="#087FBF" d="M116.606,779.997l120.967-186.865v-373.74L116.606,32.517V779.997"/> <path id="path28" fill="none" stroke="#FFFFFF" stroke-width="4" d="M116.606,779.997l120.967-186.865v-373.74L116.606,32.517 V779.997z"/> <path id="path30" fill="#087FBF" d="M237.573,593.132v-373.74"/> <path id="path32" fill="none" stroke="#FFFFFF" stroke-width="4" d="M237.573,593.132v-373.74"/> <path id="path34" fill="#087FBF" d="M237.573,593.132v-373.74"/> <path id="path36" fill="none" stroke="#FFFFFF" stroke-width="4" d="M237.573,593.132v-373.74"/> <path id="path38" fill="#087FBF" d="M423.433,592.575V218.85l32.266-32.51v373.716L423.433,592.575"/> <path id="path40" fill="none" stroke="#FFFFFF" stroke-width="4" d="M423.433,592.575V218.85l32.266-32.51v373.716L423.433,592.575 z"/> <path id="path42" fill="#087FBF" d="M423.433,218.85H237.935l36.26-32.51h181.504L423.433,218.85"/> <path id="path44" fill="none" stroke="#FFFFFF" stroke-width="4" d="M423.433,218.85H237.935l36.26-32.51h181.504L423.433,218.85z" /> <path id="path46" fill="#087FBF" d="M237.935,592.575h185.498V218.85H237.935V592.575z"/> <path id="path48" fill="none" stroke="#FFFFFF" stroke-width="4" d="M237.935,592.575h185.498V218.85H237.935V592.575z"/> <path id="path50" fill="#231F20" d="M237.935,592.575h185.498"/> <path id="path52" fill="none" stroke="#FFFFFF" stroke-width="3.4" stroke-linecap="round" stroke-linejoin="round" stroke-miterlimit="1" d=" M237.935,592.575h185.498"/> <path id="path54" fill="#087FBF" d="M423.433,592.575V218.85"/> <path id="path56" fill="none" stroke="#FFFFFF" stroke-width="4" d="M423.433,592.575V218.85"/> <path id="path58" fill="#087FBF" d="M423.433,218.85H237.935"/> <path id="path60" fill="none" stroke="#FFFFFF" stroke-width="4" d="M423.433,218.85H237.935"/> <path id="path62" fill="#231F20" d="M237.935,592.575h185.498"/> <path id="path64" fill="none" stroke="#FFFFFF" stroke-width="3.4" stroke-linecap="round" stroke-linejoin="round" stroke-miterlimit="1" d=" M237.935,592.575h185.498"/> <path id="path66" fill="#087FBF" d="M423.433,592.575V218.85"/> <path id="path68" fill="none" stroke="#FFFFFF" stroke-width="4" d="M423.433,592.575V218.85"/> <path id="path70" fill="#087FBF" d="M423.433,218.85H237.935"/> <path id="path72" fill="none" stroke="#FFFFFF" stroke-width="4" d="M423.433,218.85H237.935"/> <path id="path74" fill="none" stroke="#FFFFFF" stroke-width="3.4" stroke-linecap="round" stroke-linejoin="round" d=" M236.44,383.21L119.702,186.775"/> <path id="path76" fill="none" stroke="#FFFFFF" stroke-width="3.4" stroke-linecap="round" stroke-linejoin="round" d=" M236.44,383.21l-116.738-74.297"/> <path id="path78" fill="none" stroke="#FFFFFF" stroke-width="3.4" stroke-linecap="round" stroke-linejoin="round" d=" M236.44,390.163L119.702,586.609"/> <path id="path80" fill="none" stroke="#FFFFFF" stroke-width="3.4" stroke-linecap="round" stroke-linejoin="round" d=" M236.44,390.163l-116.738,74.375"/> <path id="path82" fill="none" stroke="#FFFFFF" stroke-width="3.4" stroke-linecap="round" stroke-linejoin="round" d=" M236.44,383.21H119.702"/> <path id="path84" fill="none" stroke="#087FBF" stroke-width="5" stroke-linecap="round" stroke-linejoin="round" d=" M116.694,188.254H0.005"/> <path id="path86" fill="none" stroke="#087FBF" stroke-width="5" stroke-linecap="round" stroke-linejoin="round" d=" M116.694,310.369H0.005"/> <path id="path88" fill="none" stroke="#087FBF" stroke-width="5" stroke-linecap="round" stroke-linejoin="round" d=" M116.694,387.341H0.005"/> <path id="path90" fill="none" stroke="#087FBF" stroke-width="5" stroke-linecap="round" stroke-linejoin="round" d=" M116.694,461.687H0.005"/> <path id="path92" fill="none" stroke="#087FBF" stroke-width="5" stroke-linecap="round" stroke-linejoin="round" d=" M116.694,586.433H0.005"/> <path id="path94" fill="none" stroke="#087FBF" stroke-width="17" stroke-linejoin="round" d="M560.005,391.433H438.032"/> </g>  </g><g id="ProcessOnG1039" transform="matrix(1.0,0.0,0.0,1.0,-20.0,78.0)"><text id="ProcessOnText1040" fill="#000000" font-size="13" x="47.0" y="13.325" font-family="微软雅黑" font-weight="normal" font-style="normal" text-decoration="none" family="微软雅黑" text-anchor="middle" size="13">HistoryLog</text></g></g><g id="ProcessOnG1041" transform="matrix(1.0,0.0,0.0,1.0,838.5,234.5)" opacity="1.0"><g id="ProcessOnG1043" transform="matrix(1.0,0.0,0.0,1.0,0.0,0.0)"> <g> <path fill="none" d="M66.732,64.784H43.077c-1.209,0-2.284,1.075-2.284,2.284l0,0H69.02l0,0 C69.02,65.859,67.941,64.784,66.732,64.784z"/> <path fill="none" d="M43.077,69.354h23.655c1.209,0,2.285-1.073,2.285-2.285H40.793C40.793,68.28,41.732,69.354,43.077,69.354z"/> <path fill="#7D7C7C" d="M69.02,67.068c0,1.212-1.076,2.285-2.285,2.285H43.077c-1.209,0-2.284-1.073-2.284-2.285H0.202v2.285 C0.202,72.445,2.756,75,5.847,75h63.305c3.093,0,5.646-2.555,5.646-5.646v-2.285H69.02z"/> <path fill="#7D7C7C" d="M72.379,40.055l-3.629,4.032c0,1.478-1.21,2.554-2.555,2.554H8.938c-1.479,0-2.554-1.209-2.554-2.554 l-3.092-4.032H0.336v4.032c0,4.704,3.898,8.601,8.603,8.601h57.256c4.705,0,8.604-3.896,8.604-8.601v-4.032H72.379z"/> <path fill="#D2D3D3" d="M69.152,55.779c3.092,0,5.646,2.554,5.646,5.645v4.571c0,3.091-2.554,5.646-5.646,5.646H5.847 c-3.091,0-5.645-2.555-5.645-5.646v-4.571c0-3.091,2.554-5.645,5.645-5.645H69.152z M66.732,65.995 c1.209,0,2.285-1.075,2.285-2.286c0-1.21-1.076-2.285-2.285-2.285H43.077c-1.209,0-2.284,1.075-2.284,2.285 c0,1.211,1.075,2.286,2.284,2.286H66.732"/> <path fill="#D2D3D3" d="M66.195,0.135c4.703,0,8.603,3.898,8.603,8.602v32.123c0,4.705-3.897,8.604-8.603,8.604H8.938 c-4.704,0-8.603-3.898-8.603-8.604V8.602C0.336,3.898,4.234,0,8.938,0h57.257V0.135z M68.75,40.727V8.602 c0-1.479-1.21-2.553-2.555-2.553H8.938c-1.479,0-2.554,1.209-2.554,2.553v32.125c0,1.479,1.21,2.554,2.554,2.554h57.257 C67.54,43.279,68.75,42.204,68.75,40.727"/> </g>  </g><g id="ProcessOnG1044" transform="matrix(1.0,0.0,0.0,1.0,-20.0,81.875)"><text id="ProcessOnText1045" fill="#000000" font-size="13" x="56.5" y="13.325" font-family="微软雅黑" font-weight="normal" font-style="normal" text-decoration="none" family="微软雅黑" text-anchor="middle" size="13">Browser</text></g></g><g id="ProcessOnG1046" transform="matrix(1.0,0.0,0.0,1.0,843.5,742.5)" opacity="1.0"><g id="ProcessOnG1048" transform="matrix(1.0,0.0,0.0,1.0,0.0,0.0)"> <g> <path fill="none" d="M66.732,64.784H43.077c-1.209,0-2.284,1.075-2.284,2.284l0,0H69.02l0,0 C69.02,65.859,67.941,64.784,66.732,64.784z"/> <path fill="none" d="M43.077,69.354h23.655c1.209,0,2.285-1.073,2.285-2.285H40.793C40.793,68.28,41.732,69.354,43.077,69.354z"/> <path fill="#7D7C7C" d="M69.02,67.068c0,1.212-1.076,2.285-2.285,2.285H43.077c-1.209,0-2.284-1.073-2.284-2.285H0.202v2.285 C0.202,72.445,2.756,75,5.847,75h63.305c3.093,0,5.646-2.555,5.646-5.646v-2.285H69.02z"/> <path fill="#7D7C7C" d="M72.379,40.055l-3.629,4.032c0,1.478-1.21,2.554-2.555,2.554H8.938c-1.479,0-2.554-1.209-2.554-2.554 l-3.092-4.032H0.336v4.032c0,4.704,3.898,8.601,8.603,8.601h57.256c4.705,0,8.604-3.896,8.604-8.601v-4.032H72.379z"/> <path fill="#D2D3D3" d="M69.152,55.779c3.092,0,5.646,2.554,5.646,5.645v4.571c0,3.091-2.554,5.646-5.646,5.646H5.847 c-3.091,0-5.645-2.555-5.645-5.646v-4.571c0-3.091,2.554-5.645,5.645-5.645H69.152z M66.732,65.995 c1.209,0,2.285-1.075,2.285-2.286c0-1.21-1.076-2.285-2.285-2.285H43.077c-1.209,0-2.284,1.075-2.284,2.285 c0,1.211,1.075,2.286,2.284,2.286H66.732"/> <path fill="#D2D3D3" d="M66.195,0.135c4.703,0,8.603,3.898,8.603,8.602v32.123c0,4.705-3.897,8.604-8.603,8.604H8.938 c-4.704,0-8.603-3.898-8.603-8.604V8.602C0.336,3.898,4.234,0,8.938,0h57.257V0.135z M68.75,40.727V8.602 c0-1.479-1.21-2.553-2.555-2.553H8.938c-1.479,0-2.554,1.209-2.554,2.553v32.125c0,1.479,1.21,2.554,2.554,2.554h57.257 C67.54,43.279,68.75,42.204,68.75,40.727"/> </g>  </g><g id="ProcessOnG1049" transform="matrix(1.0,0.0,0.0,1.0,-20.0,81.875)"><text id="ProcessOnText1050" fill="#000000" font-size="13" x="56.5" y="13.325" font-family="微软雅黑" font-weight="normal" font-style="normal" text-decoration="none" family="微软雅黑" text-anchor="middle" size="13">Browser</text></g></g><g id="ProcessOnG1051" transform="matrix(1.0,0.0,0.0,1.0,638.0,247.5)" opacity="1.0"><g id="ProcessOnG1053" transform="matrix(1.0,0.0,0.0,1.0,0.0,0.0)"> <g> <path fill="#7D7C7C" d="M75,33.058v3.4C75,42.624,68.182,49,59.872,49H15.128C6.712,49.002,0,42.729,0,36.458v-3.4H75z"/> <path fill="#D2D3D3" d="M28.871,0c7.777,0,14.488,4.571,17.471,11.267c1.6-1.063,3.409-1.7,5.54-1.7 c5.327,0,9.589,4.145,9.694,9.354C69.141,19.558,75,26.786,75,32.631v1.275c0,6.272-6.818,12.543-15.234,12.543H15.128 C6.712,46.45,0,40.18,0,33.907v-1.274c0-4.784,4.049-11.373,9.695-12.968c0-0.212,0-0.318,0-0.53C9.695,8.504,18.217,0,28.871,0z" /> </g>  </g></g><g id="ProcessOnG1054" transform="matrix(1.0,0.0,0.0,1.0,681.5,749.5)" opacity="1.0"><g id="ProcessOnG1056" transform="matrix(1.0,0.0,0.0,1.0,0.0,0.0)"> <g> <path fill="#7D7C7C" d="M75,33.058v3.4C75,42.624,68.182,49,59.872,49H15.128C6.712,49.002,0,42.729,0,36.458v-3.4H75z"/> <path fill="#D2D3D3" d="M28.871,0c7.777,0,14.488,4.571,17.471,11.267c1.6-1.063,3.409-1.7,5.54-1.7 c5.327,0,9.589,4.145,9.694,9.354C69.141,19.558,75,26.786,75,32.631v1.275c0,6.272-6.818,12.543-15.234,12.543H15.128 C6.712,46.45,0,40.18,0,33.907v-1.274c0-4.784,4.049-11.373,9.695-12.968c0-0.212,0-0.318,0-0.53C9.695,8.504,18.217,0,28.871,0z" /> </g>  </g></g><g id="ProcessOnG1057"><path id="ProcessOnPath1058" d="M838.5 272.0C772.56761038761 272.0 675.5 181.56761038760993 675.5 247.5" stroke="#323232" stroke-width="2.0" stroke-dasharray="none" fill="none" marker-start="url(#ProcessOnMarker1059)" marker-end="url(#ProcessOnMarker1061)"/></g><g id="ProcessOnG1063"><path id="ProcessOnPath1064" d="M843.5 780.0C822.5 818.0 719.0 848.8467973162146 719.0 798.5" stroke="#323232" stroke-width="2.0" stroke-dasharray="none" fill="none" marker-start="url(#ProcessOnMarker1065)" marker-end="url(#ProcessOnMarker1067)"/></g><g id="ProcessOnG1069" transform="matrix(1.0,0.0,0.0,1.0,638.0,360.5)" opacity="1.0"><g id="ProcessOnG1071" transform="matrix(1.0,0.0,0.0,1.0,0.0,0.0)"> <g id="g12" transform="scale(0.1,0.1)"> <path id="path22" fill="#02709F" d="M749.998,376.924V0l-37.92,33.237V410L749.998,376.924"/> <path id="path24" fill="none" stroke="#FFFFFF" stroke-width="3.9999" d="M749.998,376.924V0l-37.92,33.237V410L749.998,376.924z" /> <path id="path26" fill="#02709F" d="M-0.002,409.345h711.279V33.96H-0.002V409.345z"/> <path id="path28" fill="none" stroke="#FFFFFF" stroke-width="3.9999" d="M-0.002,409.345h711.279V33.96H-0.002V409.345z"/> <path id="path30" fill="#02709F" d="M43.254,116.313C43.254,78.618,82.4,72.92,82.4,72.92s408.994,0,445.098,0 c47.529,0,46.113,44.668,46.113,44.668s0,184.189,0,210.996c0,26.445-36.113,37.51-36.113,37.51s-415.972,0-449.551,0 c-33.452,0-44.692-35.01-44.692-35.01V116.313"/> <path id="path32" fill="none" stroke="#FFFFFF" stroke-width="3.9999" d="M43.254,116.313C43.254,78.618,82.4,72.92,82.4,72.92 s408.994,0,445.098,0c47.529,0,46.113,44.668,46.113,44.668s0,184.189,0,210.996c0,26.445-36.113,37.51-36.113,37.51 s-415.972,0-449.551,0c-33.452,0-44.692-35.01-44.692-35.01V116.313z"/> <path id="path34" fill="#02709F" d="M749.998,0.078H38.552L-0.002,33.96h711.279L749.998,0.078"/> <path id="path36" fill="none" stroke="#FFFFFF" stroke-width="3.9999" d="M749.998,0.078H38.552L-0.002,33.96h711.279 L749.998,0.078z"/> <path id="path38" fill="#02709F" d="M661.218,111.279c0,5.918-8.809,10.723-19.736,10.723c-10.908,0-19.707-4.805-19.707-10.723 s8.799-10.894,19.707-10.894C652.41,100.386,661.218,105.361,661.218,111.279"/> <path id="path40" fill="none" stroke="#FFFFFF" stroke-width="3.9999" d="M661.218,111.279c0,5.918-8.809,10.723-19.736,10.723 c-10.908,0-19.707-4.805-19.707-10.723s8.799-10.894,19.707-10.894C652.41,100.386,661.218,105.361,661.218,111.279z"/> <path id="path42" fill="#02709F" d="M661.218,189.971c0,5.928-8.809,10.908-19.736,10.908c-10.908,0-19.707-4.98-19.707-10.908 s8.799-10.908,19.707-10.908C652.41,179.063,661.218,184.043,661.218,189.971"/> <path id="path44" fill="none" stroke="#FFFFFF" stroke-width="3.9999" d="M661.218,189.971c0,5.928-8.809,10.908-19.736,10.908 c-10.908,0-19.707-4.98-19.707-10.908s8.799-10.908,19.707-10.908C652.41,179.063,661.218,184.043,661.218,189.971z"/> <path id="path46" fill="#02709F" d="M661.218,268.672c0,5.908-8.809,10.879-19.736,10.879c-10.908,0-19.707-4.971-19.707-10.879 c0-5.928,8.799-10.898,19.707-10.898C652.41,257.773,661.218,262.744,661.218,268.672"/> <path id="path48" fill="none" stroke="#FFFFFF" stroke-width="3.9999" d="M661.218,268.672c0,5.908-8.809,10.879-19.736,10.879 c-10.908,0-19.707-4.971-19.707-10.879c0-5.928,8.799-10.898,19.707-10.898C652.41,257.773,661.218,262.744,661.218,268.672z"/> <path id="path50" fill="#02709F" d="M661.218,347.177c0,6.279-8.809,10.908-19.736,10.908c-10.908,0-19.707-4.629-19.707-10.908 c0-5.918,8.799-10.557,19.707-10.557C652.41,336.621,661.218,341.26,661.218,347.177"/> <path id="path52" fill="none" stroke="#FFFFFF" stroke-width="3.9999" d="M661.218,347.177c0,6.279-8.809,10.908-19.736,10.908 c-10.908,0-19.707-4.629-19.707-10.908c0-5.918,8.799-10.557,19.707-10.557C652.41,336.621,661.218,341.26,661.218,347.177z"/> </g>  </g><g id="ProcessOnG1072" transform="matrix(1.0,0.0,0.0,1.0,-20.0,47.875)"><text id="ProcessOnText1073" fill="#000000" font-size="13" x="56.5" y="13.325" font-family="微软雅黑" font-weight="normal" font-style="normal" text-decoration="none" family="微软雅黑" text-anchor="middle" size="13">Client</text></g></g><g id="ProcessOnG1074" transform="matrix(1.0,0.0,0.0,1.0,591.5,638.5)" opacity="1.0"><g id="ProcessOnG1076" transform="matrix(1.0,0.0,0.0,1.0,0.0,0.0)"> <g id="g12" transform="scale(0.1,0.1)"> <path id="path22" fill="#02709F" d="M749.998,376.924V0l-37.92,33.237V410L749.998,376.924"/> <path id="path24" fill="none" stroke="#FFFFFF" stroke-width="3.9999" d="M749.998,376.924V0l-37.92,33.237V410L749.998,376.924z" /> <path id="path26" fill="#02709F" d="M-0.002,409.345h711.279V33.96H-0.002V409.345z"/> <path id="path28" fill="none" stroke="#FFFFFF" stroke-width="3.9999" d="M-0.002,409.345h711.279V33.96H-0.002V409.345z"/> <path id="path30" fill="#02709F" d="M43.254,116.313C43.254,78.618,82.4,72.92,82.4,72.92s408.994,0,445.098,0 c47.529,0,46.113,44.668,46.113,44.668s0,184.189,0,210.996c0,26.445-36.113,37.51-36.113,37.51s-415.972,0-449.551,0 c-33.452,0-44.692-35.01-44.692-35.01V116.313"/> <path id="path32" fill="none" stroke="#FFFFFF" stroke-width="3.9999" d="M43.254,116.313C43.254,78.618,82.4,72.92,82.4,72.92 s408.994,0,445.098,0c47.529,0,46.113,44.668,46.113,44.668s0,184.189,0,210.996c0,26.445-36.113,37.51-36.113,37.51 s-415.972,0-449.551,0c-33.452,0-44.692-35.01-44.692-35.01V116.313z"/> <path id="path34" fill="#02709F" d="M749.998,0.078H38.552L-0.002,33.96h711.279L749.998,0.078"/> <path id="path36" fill="none" stroke="#FFFFFF" stroke-width="3.9999" d="M749.998,0.078H38.552L-0.002,33.96h711.279 L749.998,0.078z"/> <path id="path38" fill="#02709F" d="M661.218,111.279c0,5.918-8.809,10.723-19.736,10.723c-10.908,0-19.707-4.805-19.707-10.723 s8.799-10.894,19.707-10.894C652.41,100.386,661.218,105.361,661.218,111.279"/> <path id="path40" fill="none" stroke="#FFFFFF" stroke-width="3.9999" d="M661.218,111.279c0,5.918-8.809,10.723-19.736,10.723 c-10.908,0-19.707-4.805-19.707-10.723s8.799-10.894,19.707-10.894C652.41,100.386,661.218,105.361,661.218,111.279z"/> <path id="path42" fill="#02709F" d="M661.218,189.971c0,5.928-8.809,10.908-19.736,10.908c-10.908,0-19.707-4.98-19.707-10.908 s8.799-10.908,19.707-10.908C652.41,179.063,661.218,184.043,661.218,189.971"/> <path id="path44" fill="none" stroke="#FFFFFF" stroke-width="3.9999" d="M661.218,189.971c0,5.928-8.809,10.908-19.736,10.908 c-10.908,0-19.707-4.98-19.707-10.908s8.799-10.908,19.707-10.908C652.41,179.063,661.218,184.043,661.218,189.971z"/> <path id="path46" fill="#02709F" d="M661.218,268.672c0,5.908-8.809,10.879-19.736,10.879c-10.908,0-19.707-4.971-19.707-10.879 c0-5.928,8.799-10.898,19.707-10.898C652.41,257.773,661.218,262.744,661.218,268.672"/> <path id="path48" fill="none" stroke="#FFFFFF" stroke-width="3.9999" d="M661.218,268.672c0,5.908-8.809,10.879-19.736,10.879 c-10.908,0-19.707-4.971-19.707-10.879c0-5.928,8.799-10.898,19.707-10.898C652.41,257.773,661.218,262.744,661.218,268.672z"/> <path id="path50" fill="#02709F" d="M661.218,347.177c0,6.279-8.809,10.908-19.736,10.908c-10.908,0-19.707-4.629-19.707-10.908 c0-5.918,8.799-10.557,19.707-10.557C652.41,336.621,661.218,341.26,661.218,347.177"/> <path id="path52" fill="none" stroke="#FFFFFF" stroke-width="3.9999" d="M661.218,347.177c0,6.279-8.809,10.908-19.736,10.908 c-10.908,0-19.707-4.629-19.707-10.908c0-5.918,8.799-10.557,19.707-10.557C652.41,336.621,661.218,341.26,661.218,347.177z"/> </g>  </g><g id="ProcessOnG1077" transform="matrix(1.0,0.0,0.0,1.0,-20.0,47.875)"><text id="ProcessOnText1078" fill="#000000" font-size="13" x="56.5" y="13.325" font-family="微软雅黑" font-weight="normal" font-style="normal" text-decoration="none" family="微软雅黑" text-anchor="middle" size="13">Client</text></g></g><g id="ProcessOnG1079"><path id="ProcessOnPath1080" d="M666.5 659.0C708.3502090795255 659.0 719.0 707.6497909204745 719.0 749.5" stroke="#323232" stroke-width="2.0" stroke-dasharray="none" fill="none" marker-start="url(#ProcessOnMarker1081)" marker-end="url(#ProcessOnMarker1083)"/></g><g id="ProcessOnG1085"><path id="ProcessOnPath1086" d="M675.5 360.5C675.5 334.9 675.5 322.1 675.5 296.5" stroke="#323232" stroke-width="2.0" stroke-dasharray="none" fill="none" marker-start="url(#ProcessOnMarker1087)" marker-end="url(#ProcessOnMarker1089)"/></g><g id="ProcessOnG1091" transform="matrix(1.0,0.0,0.0,1.0,641.0,481.5)" opacity="1.0"><g id="ProcessOnG1093" transform="matrix(1.0,0.0,0.0,1.0,0.0,0.0)"> <g id="g12" transform="scale(0.1,0.1)"> <path id="path22" fill="#087FBF" d="M569.998-0.002L472.41,92.424H-0.002L122.351-0.002H569.998"/> <path id="path24" fill="none" stroke="#FFFFFF" stroke-width="4" d="M569.998-0.002L472.41,92.424H-0.002L122.351-0.002H569.998z" /> <path id="path26" fill="#087FBF" d="M-0.002,559.255H472.41V92.424H-0.002V559.255z"/> <path id="path28" fill="#087FBF" d="M-0.002,559.255H472.41V92.424H-0.002V559.255z"/> <path id="path30" fill="none" stroke="#FFFFFF" stroke-width="4" d="M-0.002,559.255H472.41V92.424H-0.002V559.255z"/> <path id="path32" fill="none" stroke="#FFFFFF" stroke-width="4" d="M-0.002,559.255H472.41V92.424H-0.002V559.255z"/> <path id="path34" fill="#087FBF" d="M-0.002,758.064H472.41V554.275H-0.002V758.064z"/> <path id="path36" fill="none" stroke="#FFFFFF" stroke-width="4" d="M-0.002,758.064H472.41V554.275H-0.002V758.064z"/> <path id="path38" fill="#087FBF" d="M560.31,471.452V4.822l-90.82,87.603v466.831L560.31,471.452"/> <path id="path40" fill="#087FBF" d="M560.31,471.452V4.822l-90.82,87.603v466.831L560.31,471.452"/> <path id="path42" fill="none" stroke="#FFFFFF" stroke-width="4" d="M560.31,471.452V4.822l-90.82,87.603v466.831L560.31,471.452z" /> <path id="path44" fill="none" stroke="#FFFFFF" stroke-width="4" d="M560.31,471.452V4.822l-90.82,87.603v466.831L560.31,471.452z" /> <path id="path46" fill="#087FBF" d="M560.31,670.564v-203.73l-90.82,87.441v203.789L560.31,670.564"/> <path id="path48" fill="none" stroke="#FFFFFF" stroke-width="4" d="M560.31,670.564v-203.73l-90.82,87.441v203.789L560.31,670.564 z"/> <path id="path50" fill="#FFFFFF" d="M167.849,313.191H66.189v-26.279L27.82,325.613l38.369,38.672v-26.25h101.66V313.191"/> <path id="path52" fill="#FFFFFF" d="M225.378,395.515v101.523H199.08l38.73,38.35l38.75-38.35h-26.299V395.515H225.378"/> <path id="path54" fill="#FFFFFF" d="M225.378,258.669V157.151H199.08l38.73-38.35l38.75,38.35h-26.299v101.519H225.378"/> <path id="path56" fill="#FFFFFF" d="M307.605,338.034h101.66v26.25l38.379-38.672l-38.379-38.701v26.279h-101.66V338.034"/> <path id="path58" fill="none" stroke="#FFFFFF" stroke-width="4" d="M401.462,488.738 c-19.316,20.205-106.826-35.283-195.928-123.652C116.589,276.726,59.832,188.772,78.972,168.743 c18.975-20.215,106.65,35.073,195.771,123.442C363.855,380.554,420.417,468.523,401.462,488.738z"/> <path id="path60" fill="none" stroke="#FFFFFF" stroke-width="4" d="M396.296,167.219c20.225,18.955-35.313,106.538-123.77,195.542 C184.07,451.794,96.013,508.318,75.964,489.382C55.73,470.056,111.082,382.663,199.548,293.64 C288.005,204.807,376.052,148.103,396.296,167.219z"/> <path id="path62" fill="none" stroke="#FFFFFF" stroke-width="4" stroke-linecap="round" stroke-linejoin="round" d=" M0.349,110.149v659.848"/> <path id="path64" fill="#BFBEBE" d="M279.558,384.626c33.359-23.389,41.572-69.629,18.145-103.291 c-23.613-33.525-69.717-41.543-103.428-18.145c-33.545,23.574-41.748,69.629-18.145,103.32 C199.548,400.007,245.828,408.22,279.558,384.626"/> </g>  </g><g id="ProcessOnG1094" transform="matrix(1.0,0.0,0.0,1.0,-20.0,83.875)"><text id="ProcessOnText1095" fill="#000000" font-size="13" x="47.5" y="13.325" font-family="微软雅黑" font-weight="normal" font-style="normal" text-decoration="none" family="微软雅黑" text-anchor="middle" size="13">Boardcast</text></g></g><g id="ProcessOnG1096"><path id="ProcessOnPath1097" d="M753.0 520.0L698.0 520.0" stroke="#323232" stroke-width="2.0" stroke-dasharray="2.0 3.0" fill="none"/><g id="ProcessOnG1098" transform="matrix(1.0,0.0,0.0,1.0,725.5,511.875)"><path id="ProcessOnPath1099" d="M0 0H26.0V16.25H0Z" fill="#fff" transform="matrix(1.0,0.0,0.0,1.0,-13.0,0.0)"/><text id="ProcessOnText1100" fill="#000000" font-size="13" x="0.0" y="13.325" font-family="微软雅黑" font-weight="normal" font-style="normal" text-decoration="none" family="微软雅黑" text-anchor="middle" size="13">关联</text></g></g><g id="ProcessOnG1101"><path id="ProcessOnPath1102" d="M793.0 500.0C793.0 442.6435705434866 770.3564294565134 381.0 713.0 381.0" stroke="#323232" stroke-width="2.0" stroke-dasharray="none" fill="none" marker-end="url(#ProcessOnMarker1103)"/><g id="ProcessOnG1105" transform="matrix(1.0,0.0,0.0,1.0,774.5086610461925,410.8663389538075)"><path id="ProcessOnPath1106" d="M0 0H26.0V16.25H0Z" fill="#fff" transform="matrix(1.0,0.0,0.0,1.0,-13.0,0.0)"/><text id="ProcessOnText1107" fill="#000000" font-size="13" x="0.0" y="13.325" font-family="微软雅黑" font-weight="normal" font-style="normal" text-decoration="none" family="微软雅黑" text-anchor="middle" size="13">广播</text></g></g><g id="ProcessOnG1108"><path id="ProcessOnPath1109" d="M763.5 540.0C779.5 608.0 665.5 592.0 629.0 638.5" stroke="#323232" stroke-width="2.0" stroke-dasharray="none" fill="none" marker-end="url(#ProcessOnMarker1110)"/><g id="ProcessOnG1112" transform="matrix(1.0,0.0,0.0,1.0,715.9375,589.1875)"><path id="ProcessOnPath1113" d="M0 0H26.0V16.25H0Z" fill="#fff" transform="matrix(1.0,0.0,0.0,1.0,-13.0,0.0)"/><text id="ProcessOnText1114" fill="#000000" font-size="13" x="0.0" y="13.325" font-family="微软雅黑" font-weight="normal" font-style="normal" text-decoration="none" family="微软雅黑" text-anchor="middle" size="13">广播</text></g></g></g></g></svg>